<?xml version="1.0" encoding="utf-8"?>
<!-- Generator: Adobe Illustrator 25.2.1, SVG Export Plug-In . SVG Version: 6.00 Build 0)  -->
<svg version="1.1" id="Capa_1" xmlns="http://www.w3.org/2000/svg" xmlns:xlink="http://www.w3.org/1999/xlink" x="0px" y="0px"
	 viewBox="0 0 1920 1080" style="enable-background:new 0 0 1920 1080;" xml:space="preserve">
<style type="text/css">
	.st0{fill:#FFFFFF;}
</style>
<rect y="3" width="1920" height="1080"/>
<g>
	<rect x="646.2" y="334.2" class="st0" width="26.8" height="51.8"/>
	<rect x="648.2" y="546.6" class="st0" width="26.8" height="51.8"/>
	<rect x="648.2" y="865" class="st0" width="26.8" height="51.8"/>
	<rect x="798.3" y="794" class="st0" width="26.8" height="51.8"/>
	<rect x="798.3" y="900" class="st0" width="26.8" height="51.8"/>
	<rect x="497.9" y="735.4" class="st0" width="26.8" height="51.8"/>
	<rect x="797.3" y="582" class="st0" width="26.8" height="51.8"/>
	<rect x="796.4" y="52.2" class="st0" width="26.8" height="51.8"/>
	<rect x="646.2" y="121.8" class="st0" width="26.8" height="51.8"/>
	<rect x="497.9" y="311.4" class="st0" width="26.8" height="51.8"/>
	<rect x="497.9" y="630.4" class="st0" width="26.8" height="51.8"/>
	<rect x="497.9" y="415.4" class="st0" width="26.8" height="51.8"/>
	<rect x="1247.1" y="830" class="st0" width="26.8" height="51.8"/>
	<rect x="646.2" y="228" class="st0" width="26.8" height="51.8"/>
	<rect x="1246.1" y="300" class="st0" width="26.8" height="51.8"/>
	<rect x="1096.9" y="869.7" class="st0" width="26.8" height="51.8"/>
	<rect x="1094.9" y="338.9" class="st0" width="26.8" height="51.8"/>
	<rect x="946.6" y="945.8" class="st0" width="26.8" height="51.8"/>
	<rect x="1094.9" y="126.4" class="st0" width="26.8" height="51.8"/>
	<rect x="1245.2" y="88.2" class="st0" width="26.8" height="51.8"/>
	<rect x="1246.1" y="618" class="st0" width="26.8" height="51.8"/>
	<rect x="1096.9" y="551.2" class="st0" width="26.8" height="51.8"/>
	<rect x="946.6" y="632.8" class="st0" width="26.8" height="51.8"/>
	<rect x="946.6" y="737.8" class="st0" width="26.8" height="51.8"/>
	<rect x="946.6" y="417.8" class="st0" width="26.8" height="51.8"/>
	<rect x="1094.9" y="232.6" class="st0" width="26.8" height="51.8"/>
	<rect x="946.6" y="313.8" class="st0" width="26.8" height="51.8"/>
	<rect x="1247.1" y="936" class="st0" width="26.8" height="51.8"/>
	<rect x="797.3" y="264" class="st0" width="26.8" height="51.8"/>
	<rect x="946.6" y="1049.8" class="st0" width="26.8" height="30.2"/>
	<rect x="497.9" y="943.4" class="st0" width="26.8" height="51.8"/>
	<rect x="1395.4" y="1044.8" class="st0" width="26.8" height="35.2"/>
	<rect x="348.6" y="339.6" class="st0" width="26.8" height="51.8"/>
	<rect x="497.9" y="1047.4" class="st0" width="26.8" height="32.6"/>
	<rect x="1844.2" y="1052" class="st0" width="26.8" height="28"/>
	<rect x="946.7" y="0" class="st0" width="26.8" height="45.8"/>
	<rect x="1395.5" y="0" class="st0" width="26.8" height="40.8"/>
	<rect x="1543.9" y="0" class="st0" width="26.8" height="5.8"/>
	<rect x="49.3" y="1074.6" class="st0" width="26.8" height="5.4"/>
	<rect x="198.5" y="267.5" class="st0" width="26.8" height="51.8"/>
	<rect x="216.3" y="0" class="st0" width="8.8" height="1.5"/>
	<rect x="498" y="0" class="st0" width="26.8" height="43.4"/>
	<rect x="648.2" y="1077.4" class="st0" width="26.8" height="2.6"/>
	<rect x="347.7" y="127.6" class="st0" width="26.8" height="51.8"/>
	<rect x="199.5" y="903.5" class="st0" width="26.8" height="51.8"/>
	<rect x="199.5" y="797.5" class="st0" width="26.8" height="51.8"/>
	<rect x="348.6" y="657.5" class="st0" width="26.8" height="51.8"/>
	<rect x="349.6" y="975.5" class="st0" width="26.8" height="51.8"/>
	<rect x="349.6" y="869.4" class="st0" width="26.8" height="51.8"/>
	<rect x="49.3" y="970.6" class="st0" width="26.8" height="51.8"/>
	<rect x="49.3" y="657.6" class="st0" width="26.8" height="51.8"/>
	<rect x="49.3" y="338.6" class="st0" width="26.8" height="51.8"/>
	<rect x="49.3" y="762.6" class="st0" width="26.8" height="51.8"/>
	<rect x="197.6" y="55.7" class="st0" width="26.8" height="51.8"/>
	<rect x="198.5" y="585.5" class="st0" width="26.8" height="51.8"/>
	<rect x="49.3" y="18.8" class="st0" width="26.8" height="51.8"/>
	<rect x="49.3" y="442.6" class="st0" width="26.8" height="51.8"/>
	<rect x="1543.8" y="273.8" class="st0" width="26.8" height="51.8"/>
	<rect x="1543.8" y="592.8" class="st0" width="26.8" height="51.8"/>
	<rect x="1543.8" y="377.8" class="st0" width="26.8" height="51.8"/>
	<rect x="1692.1" y="78.2" class="st0" width="26.8" height="51.8"/>
	<rect x="1693" y="290" class="st0" width="26.8" height="51.8"/>
	<rect x="1395.4" y="308.8" class="st0" width="26.8" height="51.8"/>
	<rect x="1543.8" y="697.8" class="st0" width="26.8" height="51.8"/>
	<rect x="1543.8" y="1009.8" class="st0" width="26.8" height="51.8"/>
	<rect x="1543.8" y="905.8" class="st0" width="26.8" height="51.8"/>
	<rect x="1694" y="820" class="st0" width="26.8" height="51.8"/>
	<rect x="1844.2" y="521.2" class="st0" width="26.8" height="51.8"/>
	<rect x="1844.2" y="839.7" class="st0" width="26.8" height="51.8"/>
	<rect x="1842.2" y="202.6" class="st0" width="26.8" height="51.8"/>
	<path class="st0" d="M1860.1,0v42h8.8V23.7c0-1.2,0.4-2.2,1.3-3.1c0.8-0.9,1.9-1.3,3.1-1.3s2.2,0.4,3.1,1.3
		c0.8,0.9,1.3,1.9,1.3,3.1v22.7c0,1.2-0.4,2.3-1.3,3.1c-0.9,0.8-1.9,1.3-3.1,1.3h-35.4c-1.2,0-2.2-0.4-3.1-1.3
		c-0.8-0.9-1.3-1.9-1.3-3.2c0-1.2,0.4-2.2,1.3-3c0.9-0.8,1.9-1.3,3.1-1.3h13.5V0h-140.4v24h8.8V5.7c0-1.2,0.4-2.2,1.3-3.1
		c0.8-0.9,1.9-1.3,3.1-1.3s2.2,0.4,3.1,1.3c0.8,0.9,1.3,1.9,1.3,3.1v22.7c0,1.2-0.4,2.3-1.3,3.1c-0.9,0.8-1.9,1.3-3.1,1.3h-35.4
		c-1.2,0-2.2-0.4-3.1-1.3c-0.8-0.9-1.3-1.9-1.3-3.2c0-1.2,0.4-2.2,1.3-3c0.9-0.8,1.9-1.3,3.1-1.3h13.5V0h-122.8v6.1
		c0,2.3-0.8,4.3-2.5,6c-1.7,1.7-3.7,2.5-6,2.5h-27.3c-2.4,0-4.4-0.8-6-2.5c-1.6-1.7-2.5-3.6-2.5-6V0h-104.2v41.1
		c0,2.3-0.8,4.3-2.5,6c-1.7,1.7-3.6,2.5-6,2.5h-27.3c-2.4,0-4.4-0.8-6-2.5c-1.6-1.7-2.5-3.6-2.5-6V0h-122.8v34h8.8V15.7
		c0-1.2,0.4-2.2,1.3-3.1c0.9-0.9,1.9-1.3,3.1-1.3c1.2,0,2.3,0.4,3.1,1.3c0.9,0.9,1.3,1.9,1.3,3.1v22.7c0,1.2-0.4,2.3-1.3,3.1
		c-0.8,0.8-1.9,1.3-3.1,1.3h-35.4c-1.2,0-2.2-0.4-3.1-1.3c-0.9-0.9-1.3-1.9-1.3-3.2c0-1.2,0.4-2.2,1.3-3c0.9-0.8,1.9-1.3,3.1-1.3
		h13.5V0h-273v46.1c0,2.3-0.8,4.3-2.5,6c-1.6,1.7-3.6,2.5-6,2.5h-27.3c-2.4,0-4.4-0.8-6-2.5c-1.6-1.7-2.5-3.6-2.5-6V0H832.7v2.4
		c0,1.2-0.4,2.3-1.3,3.1c-0.9,0.8-1.9,1.3-3.1,1.3h-35.4c-1.2,0-2.2-0.4-3.1-1.3c-0.8-0.9-1.3-1.9-1.3-3.2c0-0.9,0.2-1.6,0.7-2.3
		H533.4v43.7c0,2.3-0.8,4.3-2.5,6c-1.6,1.6-3.6,2.5-6,2.5h-27.3c-2.4,0-4.4-0.8-6-2.5c-1.6-1.7-2.5-3.7-2.5-6V0H233.9v5.9
		c0,1.2-0.4,2.2-1.3,3.1c-0.8,0.9-1.9,1.3-3.1,1.3h-35.4c-1.2,0-2.3-0.5-3.1-1.3c-0.9-0.9-1.3-1.9-1.3-3.2c0-1.2,0.4-2.2,1.3-3
		c0.8-0.8,1.9-1.2,3.1-1.2h13.5V0H0v1080h40.5v-5.9c0-2.3,0.8-4.3,2.5-6c1.7-1.7,3.7-2.5,6-2.5h27.4c2.3,0,4.2,0.8,5.9,2.5
		c1.6,1.7,2.5,3.7,2.5,6v5.9h257.4c-0.8-0.8-1.2-1.8-1.2-3c0-1.2,0.4-2.3,1.3-3.1c0.9-0.9,1.9-1.3,3.1-1.3h22.1v7.4h121.8v-33
		c0-2.3,0.8-4.3,2.5-6c1.7-1.7,3.7-2.5,6-2.5H525c2.3,0,4.2,0.8,5.9,2.5c1.6,1.7,2.5,3.7,2.5,6v33h106.1v-3c0-2.3,0.8-4.3,2.5-6
		c1.7-1.7,3.7-2.5,6-2.5h27.4c2.3,0,4.2,0.8,5.9,2.5c1.7,1.7,2.5,3.7,2.5,6v3h254.2v-30.6c0-2.3,0.8-4.3,2.5-6
		c1.7-1.7,3.7-2.5,6-2.5h27.4c2.3,0,4.2,0.8,5.9,2.5c1.6,1.7,2.5,3.7,2.5,6v30.6h106.3c0.3-1.6,1.1-3.1,2.4-4.4
		c1.7-1.7,3.7-2.5,6-2.5h27.4c2.3,0,4.2,0.8,5.9,2.5c1.3,1.3,2,2.7,2.3,4.4H1256v-38h-13.3c-1.2,0-2.3-0.4-3.1-1.3
		c-0.9-0.8-1.3-1.9-1.3-3.1s0.4-2.3,1.3-3.1c0.9-0.9,1.9-1.3,3.1-1.3h22.1v46.8h8.8v-4.5c0-1.2,0.4-2.2,1.3-3.1
		c0.9-0.9,1.9-1.3,3.1-1.3s2.3,0.4,3.1,1.3c0.9,0.8,1.3,1.9,1.3,3.1v4.5h104.2v-35.6c0-2.3,0.8-4.3,2.5-6c1.7-1.7,3.7-2.5,6-2.5
		h27.4c2.3,0,4.2,0.8,5.9,2.5c1.6,1.7,2.5,3.7,2.5,6v35.6H1703v-48h-13.3c-1.2,0-2.3-0.4-3.1-1.3c-0.9-0.8-1.3-1.9-1.3-3.1
		s0.4-2.3,1.3-3.1c0.8-0.9,1.9-1.3,3.1-1.3h22.1v56.8h8.8v-14.5c0-1.2,0.4-2.2,1.3-3.1c0.8-0.9,1.9-1.3,3.1-1.3
		c1.2,0,2.3,0.4,3.1,1.3c0.9,0.8,1.3,1.9,1.3,3.1v14.5h106.1v-28.4c0-2.3,0.8-4.3,2.5-6c1.7-1.7,3.7-2.5,6-2.5h27.4
		c2.3,0,4.2,0.8,5.9,2.5c1.7,1.7,2.5,3.7,2.5,6v28.4h40.4V0H1860.1z M490.4,150.6c0.8-0.8,1.9-1.2,3.1-1.2H507V97.6h-13.3
		c-1.2,0-2.3-0.4-3.1-1.3c-0.9-0.9-1.3-1.9-1.3-3.1c0-1.2,0.4-2.3,1.3-3.1c0.8-0.8,1.9-1.3,3.1-1.3h22v60.6h8.8v-18.3
		c0-1.2,0.4-2.2,1.3-3.1c0.8-0.9,1.9-1.3,3.1-1.3c1.2,0,2.3,0.4,3.1,1.3c0.8,0.8,1.3,1.9,1.3,3.1v22.7c0,1.2-0.4,2.3-1.3,3.1
		c-0.9,0.8-1.9,1.3-3.1,1.3h-35.4c-1.2,0-2.3-0.5-3.1-1.3c-0.9-0.9-1.3-1.9-1.3-3.2C489.1,152.5,489.5,151.5,490.4,150.6z
		 M490.4,258.6c0.8-0.8,1.9-1.2,3.1-1.2H507v-51.8h-13.3c-1.2,0-2.3-0.4-3.1-1.3c-0.9-0.9-1.3-1.9-1.3-3.1c0-1.2,0.4-2.3,1.3-3.1
		c0.8-0.8,1.9-1.3,3.1-1.3h22v60.6h8.8v-18.3c0-1.2,0.4-2.2,1.3-3.1c0.8-0.9,1.9-1.3,3.1-1.3c1.2,0,2.3,0.4,3.1,1.3
		c0.8,0.8,1.3,1.9,1.3,3.1v22.7c0,1.2-0.4,2.3-1.3,3.1c-0.9,0.8-1.9,1.3-3.1,1.3h-35.4c-1.2,0-2.3-0.5-3.1-1.3
		c-0.9-0.9-1.3-1.9-1.3-3.2C489.1,260.5,489.5,259.5,490.4,258.6z M490.3,572.4c0.9-0.8,1.9-1.2,3.1-1.2h13.5v-51.8h-13.3
		c-1.2,0-2.2-0.4-3.1-1.3c-0.8-0.9-1.3-1.9-1.3-3.1c0-1.2,0.4-2.3,1.3-3.1c0.9-0.9,1.9-1.3,3.1-1.3h22.1v60.6h8.8v-18.3
		c0-1.2,0.4-2.2,1.3-3.1c0.9-0.9,1.9-1.3,3.1-1.3c1.2,0,2.2,0.4,3.1,1.3c0.8,0.9,1.3,1.9,1.3,3.1v22.7c0,1.2-0.4,2.2-1.3,3.1
		c-0.9,0.8-1.9,1.3-3.1,1.3h-35.4c-1.2,0-2.3-0.5-3.1-1.3c-0.9-0.9-1.3-2-1.3-3.2C489,574.3,489.4,573.3,490.3,572.4z M345.3,551.4
		c-1.2,0-2.2-0.4-3.1-1.3c-0.8-0.8-1.3-1.9-1.3-3.1c0-1.2,0.4-2.2,1.3-3.1c0.9-0.9,1.9-1.3,3.1-1.3h22.1v60.6h8.8v-18.3
		c0-1.2,0.4-2.2,1.3-3.1c0.9-0.9,1.9-1.3,3.1-1.3c1.2,0,2.2,0.4,3.1,1.3c0.8,0.8,1.3,1.9,1.3,3.1v22.7c0,1.2-0.4,2.3-1.3,3.1
		c-0.9,0.9-1.9,1.3-3.1,1.3h-35.4c-1.2,0-2.2-0.4-3.1-1.3c-0.8-0.9-1.3-1.9-1.3-3.2c0-1.2,0.4-2.2,1.3-3c0.9-0.8,1.9-1.3,3.1-1.3
		h13.5v-51.8H345.3z M383.6,504.8c-0.9,0.9-1.9,1.3-3.1,1.3h-35.4c-1.2,0-2.2-0.4-3.1-1.3c-0.8-0.9-1.3-1.9-1.3-3.2
		c0-1.2,0.4-2.2,1.3-3c0.9-0.8,1.9-1.3,3.1-1.3h13.5v-51.8h-13.3c-1.2,0-2.2-0.4-3.1-1.3c-0.8-0.8-1.3-1.9-1.3-3.1
		c0-1.2,0.4-2.2,1.3-3.1c0.9-0.9,1.9-1.3,3.1-1.3h22.1v60.6h8.8V479c0-1.2,0.4-2.2,1.3-3.1c0.9-0.9,1.9-1.3,3.1-1.3
		c1.2,0,2.2,0.4,3.1,1.3c0.8,0.9,1.3,1.9,1.3,3.1v22.7C384.9,502.9,384.5,503.9,383.6,504.8z M339.8,391.7v-52.5
		c0-2.3,0.8-4.3,2.5-6c1.7-1.7,3.7-2.5,6-2.5h27.4c2.3,0,4.2,0.8,5.9,2.5c1.6,1.7,2.5,3.7,2.5,6v52.5c0,2.3-0.8,4.3-2.5,6
		c-1.7,1.7-3.7,2.5-6,2.5h-27.3c-2.4,0-4.4-0.8-6-2.5C340.6,396,339.8,394,339.8,391.7z M383.6,292.8c-0.9,0.9-1.9,1.3-3.1,1.3
		h-35.4c-1.2,0-2.2-0.5-3.1-1.3c-0.8-0.9-1.3-1.9-1.3-3.2c0-1.2,0.4-2.2,1.3-3c0.9-0.8,1.9-1.2,3.1-1.2h13.5v-51.8h-13.3
		c-1.2,0-2.2-0.4-3.1-1.3c-0.8-0.9-1.3-1.9-1.3-3.1c0-1.2,0.4-2.3,1.3-3.1c0.9-0.9,1.9-1.3,3.1-1.3h22.1v60.6h8.8V267
		c0-1.2,0.4-2.2,1.3-3.1c0.9-0.9,1.9-1.3,3.1-1.3c1.2,0,2.2,0.4,3.1,1.3c0.8,0.8,1.3,1.9,1.3,3.1v22.7
		C384.9,291,384.5,292,383.6,292.8z M344.4,21.6c-1.2,0-2.3-0.4-3.1-1.3c-0.9-0.9-1.3-1.9-1.3-3.1c0-1.2,0.4-2.3,1.3-3.1
		c0.8-0.8,1.9-1.3,3.1-1.3h22v60.6h8.8V55.1c0-1.2,0.4-2.2,1.3-3.1c0.8-0.9,1.9-1.3,3.1-1.3c1.2,0,2.2,0.4,3.1,1.3
		c0.9,0.8,1.3,1.9,1.3,3.1v22.7c0,1.2-0.4,2.3-1.3,3.1c-0.9,0.8-1.9,1.3-3.1,1.3h-35.4c-1.2,0-2.3-0.5-3.1-1.3
		c-0.9-0.9-1.3-1.9-1.3-3.2c0-1.2,0.4-2.2,1.3-3c0.8-0.8,1.9-1.2,3.1-1.2h13.5V21.6H344.4z M234.8,195v22.7c0,1.2-0.4,2.3-1.3,3.1
		c-0.9,0.9-1.9,1.3-3.1,1.3H195c-1.2,0-2.3-0.4-3.1-1.3c-0.8-0.9-1.3-1.9-1.3-3.2c0-1.2,0.4-2.2,1.3-3c0.9-0.8,1.9-1.3,3.1-1.3h13.5
		v-51.8h-13.3c-1.2,0-2.3-0.4-3.1-1.3c-0.9-0.8-1.3-1.9-1.3-3.1c0-1.2,0.4-2.2,1.3-3.1c0.8-0.9,1.9-1.3,3.1-1.3h22v60.6h8.8V195
		c0-1.2,0.4-2.2,1.3-3.1c0.9-0.9,1.9-1.3,3.1-1.3c1.2,0,2.3,0.4,3.1,1.3C234.4,192.8,234.8,193.8,234.8,195z M195.2,691.5
		c-1.2,0-2.3-0.4-3.1-1.3c-0.9-0.8-1.3-1.9-1.3-3.1c0-1.2,0.4-2.2,1.3-3.1c0.8-0.9,1.9-1.3,3.1-1.3h22v60.6h8.8V725
		c0-1.2,0.4-2.2,1.3-3.1c0.9-0.9,1.9-1.3,3.1-1.3c1.2,0,2.3,0.4,3.1,1.3c0.8,0.9,1.3,1.9,1.3,3.1v22.7c0,1.2-0.4,2.3-1.3,3.1
		c-0.9,0.9-1.9,1.3-3.1,1.3H195c-1.2,0-2.3-0.4-3.1-1.3c-0.8-0.9-1.3-1.9-1.3-3.2c0-1.2,0.4-2.2,1.3-3c0.9-0.8,1.9-1.3,3.1-1.3h13.5
		v-51.8H195.2z M195.2,479.5c-1.2,0-2.3-0.4-3.1-1.3c-0.9-0.8-1.3-1.9-1.3-3.1c0-1.2,0.4-2.2,1.3-3.1c0.8-0.9,1.9-1.3,3.1-1.3h22
		v60.6h8.8V513c0-1.2,0.4-2.2,1.3-3.1c0.9-0.9,1.9-1.3,3.1-1.3c1.2,0,2.3,0.4,3.1,1.3c0.8,0.9,1.3,1.9,1.3,3.1v22.7
		c0,1.2-0.4,2.3-1.3,3.1c-0.9,0.9-1.9,1.3-3.1,1.3H195c-1.2,0-2.3-0.4-3.1-1.3c-0.8-0.9-1.3-1.9-1.3-3.2c0-1.2,0.4-2.2,1.3-3
		c0.9-0.8,1.9-1.3,3.1-1.3h13.5v-51.8H195.2z M233.5,432.8c-0.9,0.9-1.9,1.3-3.1,1.3H195c-1.2,0-2.3-0.4-3.1-1.3
		c-0.8-0.9-1.3-1.9-1.3-3.2c0-1.2,0.4-2.2,1.3-3c0.9-0.8,1.9-1.3,3.1-1.3h13.5v-51.8h-13.3c-1.2,0-2.3-0.4-3.1-1.3
		c-0.9-0.8-1.3-1.9-1.3-3.1c0-1.2,0.4-2.2,1.3-3.1c0.8-0.9,1.9-1.3,3.1-1.3h22v60.6h8.8V407c0-1.2,0.4-2.2,1.3-3.1
		c0.9-0.9,1.9-1.3,3.1-1.3c1.2,0,2.3,0.4,3.1,1.3c0.8,0.9,1.3,1.9,1.3,3.1v22.7C234.8,430.9,234.4,432,233.5,432.8z M189.7,319.6
		v-52.5c0-2.3,0.8-4.3,2.5-6c1.7-1.7,3.7-2.5,6-2.5h27.4c2.3,0,4.2,0.8,5.9,2.5c1.7,1.7,2.5,3.7,2.5,6v52.5c0,2.3-0.8,4.3-2.5,6
		c-1.6,1.7-3.6,2.5-6,2.5h-27.3c-2.4,0-4.4-0.8-6-2.5C190.5,324,189.7,322,189.7,319.6z M45.1,124.8c-1.2,0-2.2-0.4-3.1-1.3
		c-0.9-0.9-1.3-1.9-1.3-3.1c0-1.2,0.4-2.3,1.3-3.1c0.9-0.8,1.9-1.3,3.1-1.3h22.1v60.6h8.8v-18.3c0-1.2,0.4-2.2,1.3-3.1
		c0.9-0.9,1.9-1.3,3.1-1.3c1.2,0,2.2,0.4,3.1,1.3c0.8,0.8,1.3,1.9,1.3,3.1V181c0,1.2-0.4,2.2-1.3,3.1c-0.9,0.8-1.9,1.3-3.1,1.3H44.8
		c-1.2,0-2.2-0.5-3.1-1.3c-0.8-0.9-1.3-1.9-1.3-3.2c0-1.2,0.4-2.2,1.3-3c0.9-0.8,1.9-1.2,3.1-1.2h13.5v-51.8H45.1z M41.7,285.8
		c0.9-0.8,1.9-1.2,3.1-1.2h13.5v-51.8H45.1c-1.2,0-2.2-0.4-3.1-1.3c-0.9-0.9-1.3-1.9-1.3-3.1c0-1.2,0.4-2.3,1.3-3.1
		c0.9-0.8,1.9-1.3,3.1-1.3h22.1v60.6h8.8v-18.3c0-1.2,0.4-2.2,1.3-3.1c0.9-0.9,1.9-1.3,3.1-1.3c1.2,0,2.2,0.4,3.1,1.3
		c0.8,0.8,1.3,1.9,1.3,3.1V289c0,1.2-0.4,2.2-1.3,3.1c-0.9,0.8-1.9,1.3-3.1,1.3H44.8c-1.2,0-2.2-0.5-3.1-1.3
		c-0.8-0.9-1.3-1.9-1.3-3.2C40.5,287.7,40.9,286.7,41.7,285.8z M41.7,599.6c0.9-0.8,1.9-1.2,3.1-1.2h13.5v-51.8H45
		c-1.2,0-2.3-0.4-3.1-1.3c-0.8-0.9-1.3-1.9-1.3-3.1c0-1.2,0.4-2.3,1.3-3.1c0.9-0.9,1.9-1.3,3.1-1.3H67v60.6h8.8v-18.3
		c0-1.2,0.4-2.2,1.3-3.1c0.8-0.9,1.9-1.3,3.1-1.3c1.2,0,2.3,0.4,3.1,1.3c0.9,0.9,1.3,1.9,1.3,3.1v22.7c0,1.2-0.4,2.2-1.3,3.1
		c-0.8,0.8-1.9,1.3-3.1,1.3H44.8c-1.2,0-2.2-0.5-3.1-1.3c-0.9-0.9-1.3-1.9-1.3-3.2C40.4,601.5,40.8,600.5,41.7,599.6z M40.4,922.6
		c0-1.2,0.4-2.2,1.3-3c0.9-0.8,1.9-1.2,3.1-1.2h13.5v-51.8H45c-1.2,0-2.3-0.4-3.1-1.3c-0.8-0.9-1.3-1.9-1.3-3.1
		c0-1.2,0.4-2.3,1.3-3.1c0.9-0.9,1.9-1.3,3.1-1.3H67v60.6h8.8v-18.3c0-1.2,0.4-2.2,1.3-3.1c0.8-0.9,1.9-1.3,3.1-1.3
		c1.2,0,2.3,0.4,3.1,1.3c0.9,0.9,1.3,1.9,1.3,3.1v22.7c0,1.2-0.4,2.2-1.3,3.1c-0.8,0.8-1.9,1.3-3.1,1.3H44.8c-1.2,0-2.2-0.5-3.1-1.3
		C40.8,924.9,40.4,923.9,40.4,922.6z M84.7,1022.7c0,2.3-0.8,4.3-2.5,6c-1.7,1.7-3.7,2.5-6,2.5H48.9c-2.4,0-4.4-0.8-6-2.5
		c-1.6-1.6-2.5-3.6-2.5-6v-52.5c0-2.3,0.8-4.3,2.5-6c1.7-1.7,3.7-2.5,6-2.5h27.4c2.3,0,4.2,0.8,5.9,2.5c1.6,1.7,2.5,3.7,2.5,6
		V1022.7z M84.7,814.7c0,2.3-0.8,4.3-2.5,6c-1.7,1.7-3.7,2.5-6,2.5H48.9c-2.4,0-4.4-0.8-6-2.5c-1.6-1.6-2.5-3.6-2.5-6v-52.5
		c0-2.3,0.8-4.3,2.5-6c1.7-1.7,3.7-2.5,6-2.5h27.4c2.3,0,4.2,0.8,5.9,2.5c1.6,1.7,2.5,3.7,2.5,6V814.7z M84.7,709.7
		c0,2.3-0.8,4.3-2.5,6c-1.7,1.7-3.7,2.5-6,2.5H48.9c-2.4,0-4.4-0.8-6-2.5c-1.6-1.6-2.5-3.6-2.5-6v-52.5c0-2.3,0.8-4.3,2.5-6
		c1.7-1.7,3.7-2.5,6-2.5h27.4c2.3,0,4.2,0.8,5.9,2.5c1.6,1.7,2.5,3.7,2.5,6V709.7z M84.7,494.7c0,2.3-0.8,4.3-2.5,6
		c-1.7,1.7-3.7,2.5-6,2.5H48.9c-2.4,0-4.4-0.8-6-2.5c-1.6-1.6-2.5-3.6-2.5-6v-52.5c0-2.3,0.8-4.3,2.5-6c1.7-1.7,3.7-2.5,6-2.5h27.4
		c2.3,0,4.2,0.8,5.9,2.5c1.6,1.7,2.5,3.7,2.5,6V494.7z M84.7,390.7c0,2.3-0.8,4.3-2.5,6c-1.7,1.7-3.7,2.5-6,2.5H48.9
		c-2.4,0-4.4-0.8-6-2.5c-1.6-1.6-2.5-3.6-2.5-6v-52.5c0-2.3,0.8-4.3,2.5-6c1.7-1.7,3.7-2.5,6-2.5h27.4c2.3,0,4.2,0.8,5.9,2.5
		c1.6,1.7,2.5,3.7,2.5,6V390.7z M84.8,70.9c0,2.3-0.8,4.3-2.5,6c-1.7,1.6-3.6,2.5-6,2.5H49c-2.4,0-4.4-0.8-6-2.5
		c-1.6-1.7-2.5-3.7-2.5-6V18.4c0-2.3,0.8-4.3,2.5-6c1.7-1.7,3.7-2.5,6-2.5h27.4c2.3,0,4.2,0.8,5.9,2.5c1.7,1.7,2.5,3.7,2.5,6V70.9z
		 M188.8,55.3c0-2.3,0.8-4.3,2.5-6c1.7-1.7,3.7-2.5,6-2.5h27.4c2.3,0,4.2,0.8,5.9,2.5c1.6,1.7,2.5,3.7,2.5,6v52.5
		c0,2.3-0.8,4.3-2.5,6c-1.7,1.7-3.7,2.5-6,2.5h-27.3c-2.4,0-4.4-0.8-6-2.5c-1.6-1.7-2.4-3.7-2.4-6V55.3z M189.7,585.1
		c0-2.3,0.8-4.3,2.5-6c1.7-1.7,3.7-2.5,6-2.5h27.4c2.3,0,4.2,0.8,5.9,2.5c1.7,1.7,2.5,3.7,2.5,6v52.5c0,2.3-0.8,4.3-2.5,6
		c-1.6,1.7-3.6,2.5-6,2.5h-27.3c-2.4,0-4.4-0.8-6-2.5c-1.6-1.6-2.5-3.6-2.5-6V585.1z M234.8,1065.7c0,1.2-0.4,2.3-1.3,3.1
		c-0.9,0.9-1.9,1.3-3.1,1.3H195c-1.2,0-2.3-0.4-3.1-1.3c-0.8-0.9-1.3-1.9-1.3-3.2c0-1.2,0.4-2.2,1.3-3c0.9-0.8,1.9-1.3,3.1-1.3h13.5
		v-51.8h-13.3c-1.2,0-2.3-0.4-3.1-1.3c-0.9-0.8-1.3-1.9-1.3-3.1c0-1.2,0.4-2.2,1.3-3.1c0.8-0.9,1.9-1.3,3.1-1.3h22v60.6h8.8V1043
		c0-1.2,0.4-2.2,1.3-3.1c0.9-0.9,1.9-1.3,3.1-1.3c1.2,0,2.3,0.4,3.1,1.3c0.8,0.9,1.3,1.9,1.3,3.1V1065.7z M234.9,955.6
		c0,2.3-0.8,4.3-2.5,6c-1.6,1.7-3.6,2.5-6,2.5h-27.3c-2.4,0-4.4-0.8-6-2.5c-1.6-1.6-2.5-3.6-2.5-6v-52.5c0-2.3,0.8-4.3,2.5-6
		c1.7-1.7,3.7-2.5,6-2.5h27.4c2.3,0,4.2,0.8,5.9,2.5c1.7,1.7,2.5,3.7,2.5,6V955.6z M234.9,849.6c0,2.3-0.8,4.3-2.5,6
		c-1.6,1.7-3.6,2.5-6,2.5h-27.3c-2.4,0-4.4-0.8-6-2.5c-1.6-1.6-2.5-3.6-2.5-6v-52.5c0-2.3,0.8-4.3,2.5-6c1.7-1.7,3.7-2.5,6-2.5h27.4
		c2.3,0,4.2,0.8,5.9,2.5c1.7,1.7,2.5,3.7,2.5,6V849.6z M338.9,127.2c0-2.3,0.8-4.3,2.5-6c1.7-1.7,3.7-2.5,6-2.5h27.4
		c2.3,0,4.2,0.8,5.9,2.5c1.7,1.7,2.5,3.7,2.5,6v52.5c0,2.3-0.8,4.3-2.5,6c-1.7,1.7-3.7,2.5-6,2.5h-27.3c-2.4,0-4.4-0.8-6-2.5
		c-1.6-1.7-2.5-3.6-2.5-6V127.2z M339.8,657c0-2.3,0.8-4.3,2.5-6c1.7-1.7,3.7-2.5,6-2.5h27.4c2.3,0,4.2,0.8,5.9,2.5
		c1.6,1.7,2.5,3.7,2.5,6v52.5c0,2.3-0.8,4.3-2.5,6c-1.7,1.7-3.7,2.5-6,2.5h-27.3c-2.4,0-4.4-0.8-6-2.5c-1.6-1.7-2.5-3.7-2.5-6V657z
		 M345.3,763.4c-1.2,0-2.2-0.4-3.1-1.3c-0.8-0.9-1.3-1.9-1.3-3.1c0-1.2,0.4-2.3,1.3-3.1c0.9-0.9,1.9-1.3,3.1-1.3h22.1v60.6h8.8
		v-18.3c0-1.2,0.4-2.2,1.3-3.1c0.9-0.9,1.9-1.3,3.1-1.3c1.2,0,2.2,0.4,3.1,1.3c0.8,0.9,1.3,1.9,1.3,3.1v22.7c0,1.2-0.4,2.3-1.3,3.1
		c-0.9,0.8-1.9,1.3-3.1,1.3h-35.4c-1.2,0-2.2-0.4-3.1-1.3c-0.8-0.9-1.3-2-1.3-3.2c0-1.2,0.4-2.2,1.3-3c0.9-0.8,1.9-1.2,3.1-1.2h13.5
		v-51.8H345.3z M385,1027.6c0,2.3-0.8,4.3-2.5,6c-1.7,1.6-3.7,2.5-6,2.5h-27.3c-2.4,0-4.4-0.8-6-2.5c-1.6-1.7-2.5-3.7-2.5-6V975
		c0-2.3,0.8-4.3,2.5-6c1.7-1.7,3.7-2.5,6-2.5h27.4c2.3,0,4.2,0.8,5.9,2.5c1.6,1.7,2.5,3.7,2.5,6V1027.6z M385,921.5
		c0,2.3-0.8,4.3-2.5,6c-1.7,1.6-3.7,2.5-6,2.5h-27.3c-2.4,0-4.4-0.8-6-2.5c-1.6-1.7-2.5-3.7-2.5-6V869c0-2.3,0.8-4.3,2.5-6
		c1.7-1.7,3.7-2.5,6-2.5h27.4c2.3,0,4.2,0.8,5.9,2.5c1.6,1.7,2.5,3.7,2.5,6V921.5z M489,895.5c0-1.2,0.4-2.2,1.3-3
		c0.9-0.8,1.9-1.2,3.1-1.2h13.5v-51.8h-13.3c-1.2,0-2.2-0.4-3.1-1.3c-0.8-0.9-1.3-1.9-1.3-3.1c0-1.2,0.4-2.3,1.3-3.1
		c0.9-0.9,1.9-1.3,3.1-1.3h22.1v60.6h8.8v-18.3c0-1.2,0.4-2.2,1.3-3.1c0.9-0.9,1.9-1.3,3.1-1.3c1.2,0,2.2,0.4,3.1,1.3
		c0.8,0.9,1.3,1.9,1.3,3.1v22.7c0,1.2-0.4,2.2-1.3,3.1c-0.9,0.8-1.9,1.3-3.1,1.3h-35.4c-1.2,0-2.3-0.5-3.1-1.3
		C489.4,897.7,489,896.7,489,895.5z M533.3,995.5c0,2.3-0.8,4.3-2.5,6c-1.7,1.7-3.7,2.5-6,2.5h-27.3c-2.4,0-4.4-0.8-6-2.5
		c-1.6-1.7-2.5-3.6-2.5-6V943c0-2.3,0.8-4.3,2.5-6c1.7-1.7,3.7-2.5,6-2.5H525c2.3,0,4.2,0.8,5.9,2.5c1.6,1.7,2.5,3.7,2.5,6V995.5z
		 M533.3,787.5c0,2.3-0.8,4.3-2.5,6c-1.7,1.7-3.7,2.5-6,2.5h-27.3c-2.4,0-4.4-0.8-6-2.5c-1.6-1.7-2.5-3.6-2.5-6V735
		c0-2.3,0.8-4.3,2.5-6c1.7-1.7,3.7-2.5,6-2.5H525c2.3,0,4.2,0.8,5.9,2.5c1.6,1.7,2.5,3.7,2.5,6V787.5z M533.3,682.5
		c0,2.3-0.8,4.3-2.5,6c-1.7,1.7-3.7,2.5-6,2.5h-27.3c-2.4,0-4.4-0.8-6-2.5c-1.6-1.7-2.5-3.6-2.5-6V630c0-2.3,0.8-4.3,2.5-6
		c1.7-1.7,3.7-2.5,6-2.5H525c2.3,0,4.2,0.8,5.9,2.5c1.6,1.7,2.5,3.7,2.5,6V682.5z M533.3,467.5c0,2.3-0.8,4.3-2.5,6
		c-1.7,1.7-3.7,2.5-6,2.5h-27.3c-2.4,0-4.4-0.8-6-2.5c-1.6-1.7-2.5-3.6-2.5-6V415c0-2.3,0.8-4.3,2.5-6c1.7-1.7,3.7-2.5,6-2.5H525
		c2.3,0,4.2,0.8,5.9,2.5c1.6,1.7,2.5,3.7,2.5,6V467.5z M533.3,363.5c0,2.3-0.8,4.3-2.5,6c-1.7,1.7-3.7,2.5-6,2.5h-27.3
		c-2.4,0-4.4-0.8-6-2.5c-1.6-1.7-2.5-3.6-2.5-6V311c0-2.3,0.8-4.3,2.5-6c1.7-1.7,3.7-2.5,6-2.5H525c2.3,0,4.2,0.8,5.9,2.5
		c1.6,1.7,2.5,3.7,2.5,6V363.5z M939.1,153c0.8-0.8,1.9-1.2,3.1-1.2h13.5V100h-13.3c-1.2,0-2.2-0.4-3.1-1.3
		c-0.9-0.8-1.3-1.9-1.3-3.1c0-1.2,0.4-2.3,1.3-3.1c0.9-0.8,1.9-1.3,3.1-1.3h22.1v60.6h8.8v-18.3c0-1.2,0.4-2.2,1.3-3.1
		c0.9-0.9,1.9-1.3,3.1-1.3c1.2,0,2.2,0.4,3.1,1.3c0.8,0.8,1.3,1.9,1.3,3.1v22.7c0,1.2-0.4,2.3-1.3,3.1c-0.9,0.9-1.9,1.3-3.1,1.3
		h-35.4c-1.2,0-2.3-0.4-3.1-1.3c-0.9-0.9-1.3-1.9-1.3-3.2C937.8,154.9,938.3,153.9,939.1,153z M939.1,261c0.8-0.8,1.9-1.2,3.1-1.2
		h13.5V208h-13.3c-1.2,0-2.2-0.4-3.1-1.3c-0.9-0.8-1.3-1.9-1.3-3.1c0-1.2,0.4-2.3,1.3-3.1c0.9-0.8,1.9-1.3,3.1-1.3h22.1v60.6h8.8
		v-18.3c0-1.2,0.4-2.2,1.3-3.1c0.9-0.9,1.9-1.3,3.1-1.3c1.2,0,2.2,0.4,3.1,1.3c0.8,0.8,1.3,1.9,1.3,3.1v22.7c0,1.2-0.4,2.3-1.3,3.1
		c-0.9,0.9-1.9,1.3-3.1,1.3h-35.4c-1.2,0-2.3-0.4-3.1-1.3c-0.9-0.9-1.3-1.9-1.3-3.2C937.8,262.9,938.3,261.9,939.1,261z M939,574.8
		c0.9-0.8,1.9-1.2,3.1-1.2h13.5v-51.8h-13.3c-1.2,0-2.2-0.4-3.1-1.3c-0.8-0.9-1.3-1.9-1.3-3.1c0-1.2,0.4-2.3,1.3-3.1
		c0.9-0.8,1.9-1.3,3.1-1.3h22.1v60.6h8.8v-18.3c0-1.2,0.4-2.2,1.3-3.1c0.8-0.9,1.9-1.3,3.1-1.3c1.2,0,2.2,0.4,3.1,1.3
		c0.9,0.8,1.3,1.9,1.3,3.1V578c0,1.2-0.4,2.3-1.3,3.1c-0.9,0.8-1.9,1.3-3.1,1.3h-35.4c-1.2,0-2.2-0.5-3.1-1.3
		c-0.9-0.9-1.3-1.9-1.3-3.2C937.7,576.7,938.2,575.7,939,574.8z M833.6,191.5v22.7c0,1.2-0.4,2.3-1.3,3.1c-0.8,0.9-1.9,1.3-3.1,1.3
		h-35.4c-1.2,0-2.2-0.4-3.1-1.3c-0.9-0.9-1.3-1.9-1.3-3.2c0-1.2,0.4-2.2,1.3-3c0.9-0.8,1.9-1.2,3.1-1.2h13.5V158H794
		c-1.2,0-2.3-0.4-3.1-1.3c-0.8-0.8-1.3-1.9-1.3-3.1s0.4-2.3,1.3-3.1c0.9-0.9,1.9-1.3,3.1-1.3h22v60.6h8.8v-18.3
		c0-1.2,0.4-2.2,1.3-3.1c0.8-0.9,1.9-1.3,3.1-1.3s2.3,0.4,3.1,1.3C833.2,189.2,833.6,190.3,833.6,191.5z M794,688
		c-1.2,0-2.3-0.4-3.1-1.3c-0.8-0.8-1.3-1.9-1.3-3.1s0.4-2.3,1.3-3.1c0.9-0.9,1.9-1.3,3.1-1.3h22v60.6h8.8v-18.3
		c0-1.2,0.4-2.2,1.3-3.1c0.8-0.9,1.9-1.3,3.1-1.3s2.3,0.4,3.1,1.3c0.9,0.8,1.3,1.9,1.3,3.1v22.7c0,1.2-0.4,2.3-1.3,3.1
		c-0.8,0.9-1.9,1.3-3.1,1.3h-35.4c-1.2,0-2.2-0.4-3.1-1.3c-0.9-0.9-1.3-1.9-1.3-3.2c0-1.2,0.4-2.2,1.3-3c0.9-0.8,1.9-1.2,3.1-1.2
		h13.5V688H794z M794,476c-1.2,0-2.3-0.4-3.1-1.3c-0.8-0.8-1.3-1.9-1.3-3.1s0.4-2.3,1.3-3.1c0.9-0.9,1.9-1.3,3.1-1.3h22v60.6h8.8
		v-18.3c0-1.2,0.4-2.2,1.3-3.1c0.8-0.9,1.9-1.3,3.1-1.3s2.3,0.4,3.1,1.3c0.9,0.8,1.3,1.9,1.3,3.1v22.7c0,1.2-0.4,2.3-1.3,3.1
		c-0.8,0.9-1.9,1.3-3.1,1.3h-35.4c-1.2,0-2.2-0.4-3.1-1.3c-0.9-0.9-1.3-1.9-1.3-3.2c0-1.2,0.4-2.2,1.3-3c0.9-0.8,1.9-1.2,3.1-1.2
		h13.5V476H794z M832.4,429.3c-0.8,0.9-1.9,1.3-3.1,1.3h-35.4c-1.2,0-2.2-0.4-3.1-1.3c-0.9-0.9-1.3-1.9-1.3-3.2c0-1.2,0.4-2.2,1.3-3
		c0.9-0.8,1.9-1.2,3.1-1.2h13.5V370H794c-1.2,0-2.3-0.4-3.1-1.3c-0.8-0.8-1.3-1.9-1.3-3.1s0.4-2.3,1.3-3.1c0.9-0.9,1.9-1.3,3.1-1.3
		h22v60.6h8.8v-18.3c0-1.2,0.4-2.2,1.3-3.1c0.8-0.9,1.9-1.3,3.1-1.3s2.3,0.4,3.1,1.3c0.9,0.8,1.3,1.9,1.3,3.1v22.7
		C833.6,427.4,833.2,428.4,832.4,429.3z M788.5,316.1v-52.5c0-2.3,0.8-4.3,2.5-6c1.7-1.7,3.7-2.5,6-2.5h27.4c2.3,0,4.2,0.8,5.9,2.5
		c1.6,1.7,2.5,3.7,2.5,6v52.5c0,2.3-0.8,4.3-2.5,6c-1.7,1.7-3.7,2.5-6,2.5H797c-2.4,0-4.4-0.8-6-2.5
		C789.3,320.4,788.5,318.4,788.5,316.1z M683.6,473.9v22.7c0,1.2-0.4,2.2-1.3,3.1c-0.9,0.9-1.9,1.3-3.1,1.3h-35.4
		c-1.2,0-2.3-0.5-3.1-1.3c-0.8-0.9-1.3-1.9-1.3-3.2c0-1.2,0.4-2.2,1.3-3c0.8-0.8,1.9-1.2,3.1-1.2h13.5v-51.8H644
		c-1.2,0-2.3-0.4-3.1-1.3c-0.9-0.9-1.3-1.9-1.3-3.1c0-1.2,0.4-2.3,1.3-3.1c0.8-0.9,1.9-1.3,3.1-1.3h22v60.6h8.8v-18.3
		c0-1.2,0.4-2.2,1.3-3.1c0.9-0.9,1.9-1.3,3.1-1.3c1.2,0,2.3,0.4,3.1,1.3C683.2,471.6,683.6,472.6,683.6,473.9z M644,652.7
		c-1.2,0-2.3-0.4-3.1-1.3c-0.9-0.8-1.3-1.9-1.3-3.1c0-1.2,0.4-2.2,1.3-3.1c0.8-0.9,1.9-1.3,3.1-1.3h22v60.6h8.8v-18.3
		c0-1.2,0.4-2.2,1.3-3.1c0.9-0.9,1.9-1.3,3.1-1.3c1.2,0,2.3,0.4,3.1,1.3c0.8,0.9,1.3,1.9,1.3,3.1v22.7c0,1.2-0.4,2.3-1.3,3.1
		c-0.9,0.9-1.9,1.3-3.1,1.3h-35.4c-1.2,0-2.3-0.4-3.1-1.3c-0.8-0.9-1.3-1.9-1.3-3.2c0-1.2,0.4-2.2,1.3-3c0.8-0.8,1.9-1.3,3.1-1.3
		h13.5v-51.8H644z M644,758.8c-1.2,0-2.3-0.4-3.1-1.3c-0.9-0.8-1.3-1.9-1.3-3.1c0-1.2,0.4-2.3,1.3-3.1c0.8-0.9,1.9-1.3,3.1-1.3h22
		v60.6h8.8v-18.3c0-1.2,0.4-2.2,1.3-3.1c0.9-0.9,1.9-1.3,3.1-1.3c1.2,0,2.3,0.4,3.1,1.3c0.8,0.9,1.3,1.9,1.3,3.1V815
		c0,1.2-0.4,2.3-1.3,3.1c-0.9,0.8-1.9,1.3-3.1,1.3h-35.4c-1.2,0-2.3-0.4-3.1-1.3s-1.3-1.9-1.3-3.2c0-1.2,0.4-2.2,1.3-3
		c0.8-0.8,1.9-1.2,3.1-1.2h13.5v-51.8H644z M681.6,280.1c0,2.3-0.8,4.3-2.5,6c-1.7,1.6-3.7,2.5-6,2.5h-27.3c-2.4,0-4.4-0.8-6-2.5
		c-1.6-1.7-2.5-3.7-2.5-6v-52.5c0-2.3,0.8-4.3,2.5-6c1.7-1.7,3.7-2.5,6-2.5h27.4c2.3,0,4.2,0.8,5.9,2.5c1.7,1.7,2.5,3.7,2.5,6V280.1
		z M681.6,173.9c0,2.3-0.8,4.3-2.5,6c-1.7,1.7-3.7,2.5-6,2.5h-27.3c-2.4,0-4.4-0.8-6-2.5c-1.6-1.7-2.5-3.6-2.5-6v-52.5
		c0-2.3,0.8-4.3,2.5-6c1.7-1.7,3.7-2.5,6-2.5h27.4c2.3,0,4.2,0.8,5.9,2.5c1.7,1.7,2.5,3.7,2.5,6V173.9z M642,15.6
		c-1.2,0-2.3-0.4-3.1-1.3c-0.9-0.9-1.3-1.9-1.3-3.1c0-1.2,0.4-2.3,1.3-3.1c0.8-0.8,1.9-1.3,3.1-1.3h22v60.6h8.8V49.1
		c0-1.2,0.4-2.2,1.3-3.1c0.9-0.9,1.9-1.3,3.1-1.3c1.2,0,2.3,0.4,3.1,1.3c0.8,0.8,1.3,1.9,1.3,3.1v22.7c0,1.2-0.4,2.3-1.3,3.1
		c-0.9,0.8-1.9,1.3-3.1,1.3h-35.4c-1.2,0-2.3-0.5-3.1-1.3c-0.8-0.9-1.3-1.9-1.3-3.2c0-1.2,0.4-2.2,1.3-3c0.8-0.8,1.9-1.2,3.1-1.2
		h13.5V15.6H642z M637.4,333.8c0-2.3,0.8-4.3,2.5-5.9c1.7-1.7,3.7-2.5,6-2.5h27.4c2.3,0,4.2,0.8,5.9,2.5c1.7,1.7,2.5,3.6,2.5,5.9
		v52.5c0,2.3-0.8,4.3-2.5,6c-1.7,1.7-3.7,2.5-6,2.5h-27.3c-2.4,0-4.4-0.8-6-2.5c-1.6-1.7-2.5-3.6-2.5-6V333.8z M683.6,1027.3
		c0,1.2-0.4,2.2-1.3,3.1c-0.9,0.9-1.9,1.3-3.1,1.3h-35.4c-1.2,0-2.3-0.4-3.1-1.3c-0.8-0.9-1.3-1.9-1.3-3.2c0-1.2,0.4-2.2,1.3-3
		c0.8-0.8,1.9-1.2,3.1-1.2h13.5v-51.8H644c-1.2,0-2.3-0.4-3.1-1.3c-0.9-0.9-1.3-1.9-1.3-3.1c0-1.2,0.4-2.3,1.3-3.1
		c0.8-0.9,1.9-1.3,3.1-1.3h22v60.6h8.8v-18.3c0-1.2,0.4-2.2,1.3-3.1c0.9-0.9,1.9-1.3,3.1-1.3c1.2,0,2.3,0.4,3.1,1.3
		c0.8,0.8,1.3,1.9,1.3,3.1V1027.3z M683.6,917.1c0,2.3-0.8,4.3-2.5,6c-1.7,1.6-3.7,2.5-6,2.5h-27.3c-2.4,0-4.4-0.8-6-2.5
		c-1.6-1.7-2.5-3.7-2.5-6v-52.5c0-2.3,0.8-4.3,2.5-6c1.7-1.7,3.7-2.5,6-2.5h27.4c2.3,0,4.2,0.8,5.9,2.5c1.7,1.7,2.5,3.7,2.5,6V917.1
		z M683.6,598.7c0,2.3-0.8,4.3-2.5,6c-1.7,1.6-3.7,2.5-6,2.5h-27.3c-2.4,0-4.4-0.8-6-2.5c-1.6-1.7-2.5-3.7-2.5-6v-52.5
		c0-2.3,0.8-4.3,2.5-6c1.7-1.7,3.7-2.5,6-2.5h27.4c2.3,0,4.2,0.8,5.9,2.5c1.7,1.7,2.5,3.7,2.5,6V598.7z M787.6,51.8
		c0-2.3,0.8-4.3,2.5-6c1.7-1.7,3.7-2.5,6-2.5h27.4c2.3,0,4.2,0.8,5.9,2.5c1.7,1.7,2.5,3.7,2.5,6v52.5c0,2.3-0.8,4.3-2.5,6
		c-1.7,1.7-3.6,2.5-6,2.5h-27.3c-2.4,0-4.4-0.8-6-2.5c-1.6-1.7-2.5-3.7-2.5-6V51.8z M788.5,581.6c0-2.3,0.8-4.3,2.5-6
		c1.7-1.7,3.7-2.5,6-2.5h27.4c2.3,0,4.2,0.8,5.9,2.5c1.6,1.7,2.5,3.7,2.5,6v52.5c0,2.3-0.8,4.3-2.5,6c-1.7,1.7-3.7,2.5-6,2.5H797
		c-2.4,0-4.4-0.8-6-2.5c-1.6-1.7-2.5-3.6-2.5-6V581.6z M833.6,1062.2c0,1.2-0.4,2.3-1.3,3.1c-0.8,0.8-1.9,1.3-3.1,1.3h-35.4
		c-1.2,0-2.2-0.4-3.1-1.3c-0.9-0.9-1.3-1.9-1.3-3.2c0-1.2,0.4-2.2,1.3-3c0.9-0.8,1.9-1.2,3.1-1.2h13.5V1006H794
		c-1.2,0-2.3-0.4-3.1-1.3c-0.8-0.8-1.3-1.9-1.3-3.1s0.4-2.3,1.3-3.1c0.9-0.9,1.9-1.3,3.1-1.3h22v60.6h8.8v-18.3
		c0-1.2,0.4-2.2,1.3-3.1c0.8-0.9,1.9-1.3,3.1-1.3s2.3,0.4,3.1,1.3c0.9,0.8,1.3,1.9,1.3,3.1V1062.2z M833.8,952.1
		c0,2.3-0.8,4.3-2.5,6c-1.7,1.7-3.7,2.5-6,2.5H798c-2.4,0-4.4-0.8-6-2.5c-1.6-1.7-2.5-3.6-2.5-6v-52.5c0-2.3,0.8-4.3,2.5-6
		c1.7-1.7,3.7-2.5,6-2.5h27.4c2.3,0,4.2,0.8,5.9,2.5c1.6,1.7,2.5,3.7,2.5,6V952.1z M833.8,846.1c0,2.3-0.8,4.3-2.5,6
		c-1.7,1.7-3.7,2.5-6,2.5H798c-2.4,0-4.4-0.8-6-2.5c-1.6-1.7-2.5-3.6-2.5-6v-52.5c0-2.3,0.8-4.3,2.5-6c1.7-1.7,3.7-2.5,6-2.5h27.4
		c2.3,0,4.2,0.8,5.9,2.5c1.6,1.7,2.5,3.7,2.5,6V846.1z M937.7,897.8c0-1.2,0.4-2.2,1.3-3c0.9-0.8,1.9-1.2,3.1-1.2h13.5v-51.8h-13.3
		c-1.2,0-2.2-0.4-3.1-1.3c-0.8-0.9-1.3-1.9-1.3-3.1c0-1.2,0.4-2.3,1.3-3.1c0.9-0.8,1.9-1.3,3.1-1.3h22.1v60.6h8.8v-18.3
		c0-1.2,0.4-2.2,1.3-3.1c0.8-0.9,1.9-1.3,3.1-1.3c1.2,0,2.2,0.4,3.1,1.3c0.9,0.8,1.3,1.9,1.3,3.1V898c0,1.2-0.4,2.3-1.3,3.1
		c-0.9,0.8-1.9,1.3-3.1,1.3h-35.4c-1.2,0-2.2-0.5-3.1-1.3C938.2,900.1,937.7,899.1,937.7,897.8z M982.1,997.9c0,2.3-0.8,4.3-2.5,6
		c-1.7,1.6-3.7,2.5-6,2.5h-27.3c-2.4,0-4.4-0.8-6-2.5c-1.6-1.7-2.5-3.7-2.5-6v-52.5c0-2.3,0.8-4.3,2.5-6c1.7-1.7,3.7-2.5,6-2.5h27.4
		c2.3,0,4.2,0.8,5.9,2.5c1.6,1.7,2.5,3.7,2.5,6V997.9z M982.1,789.9c0,2.3-0.8,4.3-2.5,6c-1.7,1.6-3.7,2.5-6,2.5h-27.3
		c-2.4,0-4.4-0.8-6-2.5c-1.6-1.7-2.5-3.7-2.5-6v-52.5c0-2.3,0.8-4.3,2.5-6c1.7-1.7,3.7-2.5,6-2.5h27.4c2.3,0,4.2,0.8,5.9,2.5
		c1.6,1.7,2.5,3.7,2.5,6V789.9z M982.1,684.9c0,2.3-0.8,4.3-2.5,6c-1.7,1.6-3.7,2.5-6,2.5h-27.3c-2.4,0-4.4-0.8-6-2.5
		c-1.6-1.7-2.5-3.7-2.5-6v-52.5c0-2.3,0.8-4.3,2.5-6c1.7-1.7,3.7-2.5,6-2.5h27.4c2.3,0,4.2,0.8,5.9,2.5c1.6,1.7,2.5,3.7,2.5,6V684.9
		z M982.1,469.9c0,2.3-0.8,4.3-2.5,6c-1.7,1.6-3.7,2.5-6,2.5h-27.3c-2.4,0-4.4-0.8-6-2.5c-1.6-1.7-2.5-3.7-2.5-6v-52.5
		c0-2.3,0.8-4.3,2.5-6c1.7-1.7,3.7-2.5,6-2.5h27.4c2.3,0,4.2,0.8,5.9,2.5c1.6,1.7,2.5,3.7,2.5,6V469.9z M982.1,365.9
		c0,2.3-0.8,4.3-2.5,6c-1.7,1.6-3.7,2.5-6,2.5h-27.3c-2.4,0-4.4-0.8-6-2.5c-1.6-1.7-2.5-3.7-2.5-6v-52.5c0-2.3,0.8-4.3,2.5-6
		c1.7-1.7,3.7-2.5,6-2.5h27.4c2.3,0,4.2,0.8,5.9,2.5c1.6,1.7,2.5,3.7,2.5,6V365.9z M1387.8,148c0.9-0.8,1.9-1.2,3.1-1.2h13.5V95
		h-13.3c-1.2,0-2.2-0.4-3.1-1.3c-0.9-0.8-1.3-1.9-1.3-3.1c0-1.2,0.4-2.3,1.3-3.1c0.9-0.8,1.9-1.3,3.1-1.3h22.1v60.6h8.8v-18.3
		c0-1.2,0.4-2.2,1.3-3.1c0.8-0.9,1.9-1.3,3.1-1.3c1.2,0,2.2,0.4,3.1,1.3c0.8,0.8,1.3,1.9,1.3,3.1v22.7c0,1.2-0.4,2.3-1.3,3.1
		c-0.9,0.9-1.9,1.3-3.1,1.3H1391c-1.2,0-2.2-0.4-3.1-1.3c-0.8-0.9-1.3-1.9-1.3-3.2C1386.6,149.9,1387,148.9,1387.8,148z M1387.8,256
		c0.9-0.8,1.9-1.2,3.1-1.2h13.5V203h-13.3c-1.2,0-2.2-0.4-3.1-1.3c-0.9-0.8-1.3-1.9-1.3-3.1c0-1.2,0.4-2.3,1.3-3.1
		c0.9-0.8,1.9-1.3,3.1-1.3h22.1v60.6h8.8v-18.3c0-1.2,0.4-2.2,1.3-3.1c0.8-0.9,1.9-1.3,3.1-1.3c1.2,0,2.2,0.4,3.1,1.3
		c0.8,0.8,1.3,1.9,1.3,3.1v22.7c0,1.2-0.4,2.3-1.3,3.1c-0.9,0.9-1.9,1.3-3.1,1.3H1391c-1.2,0-2.2-0.4-3.1-1.3
		c-0.8-0.9-1.3-1.9-1.3-3.2C1386.6,257.9,1387,256.9,1387.8,256z M1387.8,569.8c0.8-0.8,1.9-1.2,3.1-1.2h13.5v-51.8h-13.3
		c-1.2,0-2.3-0.4-3.1-1.3c-0.8-0.9-1.3-1.9-1.3-3.1c0-1.2,0.4-2.3,1.3-3.1c0.9-0.8,1.9-1.3,3.1-1.3h22v60.6h8.8v-18.3
		c0-1.2,0.4-2.2,1.3-3.1c0.9-0.9,1.9-1.3,3.1-1.3s2.3,0.4,3.1,1.3c0.9,0.8,1.3,1.9,1.3,3.1V573c0,1.2-0.4,2.3-1.3,3.1
		c-0.8,0.8-1.9,1.3-3.1,1.3h-35.4c-1.2,0-2.3-0.5-3.1-1.3c-0.9-0.9-1.3-1.9-1.3-3.2C1386.5,571.7,1386.9,570.7,1387.8,569.8z
		 M1282.4,227.5v22.7c0,1.2-0.4,2.3-1.3,3.1c-0.8,0.9-1.9,1.3-3.1,1.3h-35.4c-1.2,0-2.3-0.4-3.1-1.3c-0.8-0.9-1.3-1.9-1.3-3.2
		c0-1.2,0.4-2.2,1.3-3c0.9-0.8,1.9-1.2,3.1-1.2h13.5V194h-13.3c-1.2,0-2.3-0.4-3.1-1.3c-0.9-0.8-1.3-1.9-1.3-3.1s0.4-2.3,1.3-3.1
		c0.9-0.9,1.9-1.3,3.1-1.3h22.1v60.6h8.8v-18.3c0-1.2,0.4-2.2,1.3-3.1c0.9-0.9,1.9-1.3,3.1-1.3s2.3,0.4,3.1,1.3
		C1282,225.2,1282.4,226.3,1282.4,227.5z M1242.8,512c-1.2,0-2.3-0.4-3.1-1.3c-0.9-0.8-1.3-1.9-1.3-3.1s0.4-2.3,1.3-3.1
		c0.9-0.9,1.9-1.3,3.1-1.3h22.1v60.6h8.8v-18.3c0-1.2,0.4-2.2,1.3-3.1c0.9-0.9,1.9-1.3,3.1-1.3s2.3,0.4,3.1,1.3
		c0.9,0.8,1.3,1.9,1.3,3.1v22.7c0,1.2-0.4,2.3-1.3,3.1c-0.8,0.9-1.9,1.3-3.1,1.3h-35.4c-1.2,0-2.3-0.4-3.1-1.3
		c-0.8-0.9-1.3-1.9-1.3-3.2c0-1.2,0.4-2.2,1.3-3c0.9-0.8,1.9-1.2,3.1-1.2h13.5V512H1242.8z M1281.1,465.3c-0.8,0.9-1.9,1.3-3.1,1.3
		h-35.4c-1.2,0-2.3-0.4-3.1-1.3c-0.8-0.9-1.3-1.9-1.3-3.2c0-1.2,0.4-2.2,1.3-3c0.9-0.8,1.9-1.2,3.1-1.2h13.5V406h-13.3
		c-1.2,0-2.3-0.4-3.1-1.3c-0.9-0.8-1.3-1.9-1.3-3.1s0.4-2.3,1.3-3.1c0.9-0.9,1.9-1.3,3.1-1.3h22.1v60.6h8.8v-18.3
		c0-1.2,0.4-2.2,1.3-3.1c0.9-0.9,1.9-1.3,3.1-1.3s2.3,0.4,3.1,1.3c0.9,0.8,1.3,1.9,1.3,3.1v22.7
		C1282.4,463.4,1282,464.4,1281.1,465.3z M1237.3,352.1v-52.5c0-2.3,0.8-4.3,2.5-6c1.7-1.7,3.7-2.5,6-2.5h27.4
		c2.3,0,4.2,0.8,5.9,2.5c1.7,1.7,2.5,3.7,2.5,6v52.5c0,2.3-0.8,4.3-2.5,6c-1.7,1.7-3.7,2.5-6,2.5h-27.3c-2.4,0-4.4-0.8-6-2.5
		C1238.1,356.4,1237.3,354.4,1237.3,352.1z M1132.4,478.5v22.7c0,1.2-0.4,2.3-1.3,3.1c-0.9,0.9-1.9,1.3-3.1,1.3h-35.4
		c-1.2,0-2.3-0.5-3.1-1.3c-0.9-0.9-1.3-2-1.3-3.2c0-1.2,0.4-2.2,1.3-3c0.9-0.8,1.9-1.2,3.1-1.2h13.5V445h-13.3
		c-1.2,0-2.3-0.4-3.1-1.3c-0.9-0.9-1.3-1.9-1.3-3.1c0-1.2,0.4-2.3,1.3-3.1c0.8-0.8,1.9-1.3,3.1-1.3h22.1v60.6h8.8v-18.3
		c0-1.2,0.4-2.2,1.3-3.1c0.8-0.9,1.9-1.3,3.1-1.3s2.3,0.4,3.1,1.3C1131.9,476.2,1132.4,477.3,1132.4,478.5z M1092.8,657.3
		c-1.2,0-2.3-0.4-3.1-1.3c-0.9-0.9-1.3-1.9-1.3-3.1c0-1.2,0.4-2.3,1.3-3.1c0.8-0.9,1.9-1.3,3.1-1.3h22.1v60.6h8.8v-18.3
		c0-1.2,0.4-2.2,1.3-3.1s1.9-1.3,3.1-1.3s2.3,0.4,3.1,1.3c0.8,0.9,1.3,1.9,1.3,3.1v22.7c0,1.2-0.4,2.2-1.3,3.1
		c-0.9,0.8-1.9,1.3-3.1,1.3h-35.4c-1.2,0-2.3-0.4-3.1-1.3c-0.9-0.9-1.3-1.9-1.3-3.2c0-1.2,0.4-2.2,1.3-3c0.9-0.8,1.9-1.2,3.1-1.2
		h13.5v-51.8H1092.8z M1092.8,763.4c-1.2,0-2.3-0.4-3.1-1.3c-0.9-0.8-1.3-1.9-1.3-3.1c0-1.2,0.4-2.2,1.3-3.1
		c0.8-0.9,1.9-1.3,3.1-1.3h22.1v60.6h8.8v-18.3c0-1.2,0.4-2.2,1.3-3.1s1.9-1.3,3.1-1.3s2.3,0.4,3.1,1.3c0.8,0.9,1.3,1.9,1.3,3.1
		v22.7c0,1.2-0.4,2.3-1.3,3.1c-0.9,0.9-1.9,1.3-3.1,1.3h-35.4c-1.2,0-2.3-0.4-3.1-1.3c-0.9-0.9-1.3-1.9-1.3-3.2c0-1.2,0.4-2.2,1.3-3
		c0.9-0.8,1.9-1.3,3.1-1.3h13.5v-51.8H1092.8z M1130.4,284.8c0,2.3-0.8,4.3-2.5,6c-1.7,1.7-3.7,2.5-6,2.5h-27.3
		c-2.4,0-4.4-0.8-6-2.5c-1.6-1.7-2.5-3.7-2.5-6v-52.5c0-2.3,0.8-4.3,2.5-6c1.7-1.7,3.7-2.5,6-2.5h27.4c2.3,0,4.2,0.8,5.9,2.5
		c1.7,1.7,2.5,3.7,2.5,6V284.8z M1130.4,178.5c0,2.3-0.8,4.3-2.5,6c-1.7,1.7-3.7,2.5-6,2.5h-27.3c-2.4,0-4.4-0.8-6-2.5
		c-1.6-1.7-2.5-3.6-2.5-6V126c0-2.3,0.8-4.3,2.5-6c1.7-1.7,3.7-2.5,6-2.5h27.4c2.3,0,4.2,0.8,5.9,2.5c1.7,1.7,2.5,3.6,2.5,6V178.5z
		 M1090.8,20.2c-1.2,0-2.3-0.4-3.1-1.3c-0.9-0.9-1.3-1.9-1.3-3.1c0-1.2,0.4-2.2,1.3-3.1c0.8-0.8,1.9-1.3,3.1-1.3h22.1V72h8.8V53.7
		c0-1.2,0.4-2.2,1.3-3.1s1.9-1.3,3.1-1.3s2.3,0.4,3.1,1.3c0.8,0.9,1.3,1.9,1.3,3.1v22.7c0,1.2-0.4,2.3-1.3,3.1
		c-0.9,0.8-1.9,1.3-3.1,1.3h-35.4c-1.2,0-2.3-0.4-3.1-1.3c-0.9-0.9-1.3-1.9-1.3-3.2c0-1.2,0.4-2.2,1.3-3c0.9-0.8,1.9-1.3,3.1-1.3
		h13.5V20.2H1090.8z M1086.2,338.5c0-2.3,0.8-4.3,2.5-6c1.7-1.7,3.7-2.5,6-2.5h27.4c2.3,0,4.2,0.8,5.9,2.5c1.7,1.7,2.5,3.7,2.5,6
		V391c0,2.3-0.8,4.3-2.5,6c-1.7,1.7-3.7,2.5-6,2.5h-27.3c-2.4,0-4.4-0.8-6-2.5c-1.6-1.6-2.5-3.6-2.5-6V338.5z M1132.4,1032
		c0,1.2-0.4,2.2-1.3,3.1c-0.9,0.8-1.9,1.3-3.1,1.3h-35.4c-1.2,0-2.3-0.5-3.1-1.3c-0.9-0.9-1.3-1.9-1.3-3.2c0-1.2,0.4-2.2,1.3-3
		c0.9-0.8,1.9-1.2,3.1-1.2h13.5v-51.8h-13.3c-1.2,0-2.3-0.4-3.1-1.3c-0.9-0.9-1.3-1.9-1.3-3.1c0-1.2,0.4-2.3,1.3-3.1
		c0.8-0.8,1.9-1.3,3.1-1.3h22.1v60.6h8.8v-18.3c0-1.2,0.4-2.2,1.3-3.1c0.8-0.9,1.9-1.3,3.1-1.3s2.3,0.4,3.1,1.3
		c0.8,0.8,1.3,1.9,1.3,3.1V1032z M1132.4,921.8c0,2.3-0.8,4.3-2.5,6c-1.7,1.7-3.7,2.5-6,2.5h-27.3c-2.4,0-4.4-0.8-6-2.5
		c-1.6-1.7-2.5-3.7-2.5-6v-52.5c0-2.3,0.8-4.3,2.5-6c1.7-1.7,3.7-2.5,6-2.5h27.4c2.3,0,4.2,0.8,5.9,2.5c1.7,1.7,2.5,3.7,2.5,6V921.8
		z M1132.4,603.3c0,2.3-0.8,4.3-2.5,6c-1.7,1.7-3.7,2.5-6,2.5h-27.3c-2.4,0-4.4-0.8-6-2.5c-1.6-1.7-2.5-3.7-2.5-6v-52.5
		c0-2.3,0.8-4.3,2.5-6c1.7-1.7,3.7-2.5,6-2.5h27.4c2.3,0,4.2,0.8,5.9,2.5c1.7,1.7,2.5,3.7,2.5,6V603.3z M1236.4,87.8
		c0-2.3,0.8-4.3,2.5-6c1.7-1.7,3.7-2.5,6-2.5h27.4c2.3,0,4.2,0.8,5.9,2.5c1.7,1.7,2.5,3.7,2.5,6v52.5c0,2.3-0.8,4.3-2.5,6
		c-1.7,1.7-3.7,2.5-6,2.5h-27.3c-2.4,0-4.4-0.8-6-2.5c-1.6-1.7-2.5-3.7-2.5-6V87.8z M1237.3,617.6c0-2.3,0.8-4.3,2.5-6
		c1.7-1.7,3.7-2.5,6-2.5h27.4c2.3,0,4.2,0.8,5.9,2.5c1.7,1.7,2.5,3.7,2.5,6v52.5c0,2.3-0.8,4.3-2.5,6c-1.7,1.7-3.7,2.5-6,2.5h-27.3
		c-2.4,0-4.4-0.8-6-2.5c-1.6-1.7-2.5-3.6-2.5-6V617.6z M1242.8,724c-1.2,0-2.3-0.4-3.1-1.3c-0.9-0.8-1.3-1.9-1.3-3.1
		s0.4-2.3,1.3-3.1c0.9-0.9,1.9-1.3,3.1-1.3h22.1v60.6h8.8v-18.3c0-1.2,0.4-2.2,1.3-3.1c0.9-0.9,1.9-1.3,3.1-1.3s2.3,0.4,3.1,1.3
		c0.9,0.8,1.3,1.9,1.3,3.1v22.7c0,1.2-0.4,2.3-1.3,3.1c-0.8,0.9-1.9,1.3-3.1,1.3h-35.4c-1.2,0-2.3-0.4-3.1-1.3
		c-0.8-0.9-1.3-1.9-1.3-3.2c0-1.2,0.4-2.2,1.3-3c0.9-0.8,1.9-1.2,3.1-1.2h13.5V724H1242.8z M1282.5,988.1c0,2.3-0.8,4.3-2.5,6
		c-1.7,1.7-3.7,2.5-6,2.5h-27.3c-2.4,0-4.4-0.8-6-2.5c-1.6-1.7-2.5-3.6-2.5-6v-52.5c0-2.3,0.8-4.3,2.5-6c1.7-1.7,3.7-2.5,6-2.5h27.4
		c2.3,0,4.2,0.8,5.9,2.5c1.7,1.7,2.5,3.7,2.5,6V988.1z M1282.5,882.1c0,2.3-0.8,4.3-2.5,6c-1.7,1.7-3.7,2.5-6,2.5h-27.3
		c-2.4,0-4.4-0.8-6-2.5c-1.6-1.7-2.5-3.6-2.5-6v-52.5c0-2.3,0.8-4.3,2.5-6c1.7-1.7,3.7-2.5,6-2.5h27.4c2.3,0,4.2,0.8,5.9,2.5
		c1.7,1.7,2.5,3.7,2.5,6V882.1z M1386.5,892.8c0-1.2,0.4-2.2,1.3-3c0.8-0.8,1.9-1.2,3.1-1.2h13.5v-51.8h-13.3
		c-1.2,0-2.3-0.4-3.1-1.3c-0.8-0.9-1.3-1.9-1.3-3.1c0-1.2,0.4-2.3,1.3-3.1c0.9-0.8,1.9-1.3,3.1-1.3h22v60.6h8.8v-18.3
		c0-1.2,0.4-2.2,1.3-3.1c0.9-0.9,1.9-1.3,3.1-1.3s2.3,0.4,3.1,1.3c0.9,0.8,1.3,1.9,1.3,3.1V893c0,1.2-0.4,2.3-1.3,3.1
		c-0.8,0.8-1.9,1.3-3.1,1.3h-35.4c-1.2,0-2.3-0.5-3.1-1.3C1386.9,895.1,1386.5,894.1,1386.5,892.8z M1430.8,992.9
		c0,2.3-0.8,4.3-2.5,6c-1.7,1.6-3.7,2.5-6,2.5h-27.3c-2.4,0-4.4-0.8-6-2.5c-1.6-1.7-2.4-3.7-2.4-6v-52.5c0-2.3,0.8-4.3,2.5-6
		c1.7-1.7,3.7-2.5,6-2.5h27.4c2.3,0,4.2,0.8,5.9,2.5c1.6,1.7,2.5,3.7,2.5,6V992.9z M1430.8,784.9c0,2.3-0.8,4.3-2.5,6
		c-1.7,1.6-3.7,2.5-6,2.5h-27.3c-2.4,0-4.4-0.8-6-2.5c-1.6-1.7-2.4-3.7-2.4-6v-52.5c0-2.3,0.8-4.3,2.5-6c1.7-1.7,3.7-2.5,6-2.5h27.4
		c2.3,0,4.2,0.8,5.9,2.5c1.6,1.7,2.5,3.7,2.5,6V784.9z M1430.8,679.9c0,2.3-0.8,4.3-2.5,6c-1.7,1.6-3.7,2.5-6,2.5h-27.3
		c-2.4,0-4.4-0.8-6-2.5c-1.6-1.7-2.4-3.7-2.4-6v-52.5c0-2.3,0.8-4.3,2.5-6c1.7-1.7,3.7-2.5,6-2.5h27.4c2.3,0,4.2,0.8,5.9,2.5
		c1.6,1.7,2.5,3.7,2.5,6V679.9z M1430.8,464.9c0,2.3-0.8,4.3-2.5,6c-1.7,1.6-3.7,2.5-6,2.5h-27.3c-2.4,0-4.4-0.8-6-2.5
		c-1.6-1.7-2.4-3.7-2.4-6v-52.5c0-2.3,0.8-4.3,2.5-6c1.7-1.7,3.7-2.5,6-2.5h27.4c2.3,0,4.2,0.8,5.9,2.5c1.6,1.7,2.5,3.7,2.5,6V464.9
		z M1430.8,360.9c0,2.3-0.8,4.3-2.5,6c-1.7,1.6-3.7,2.5-6,2.5h-27.3c-2.4,0-4.4-0.8-6-2.5c-1.6-1.7-2.4-3.7-2.4-6v-52.5
		c0-2.3,0.8-4.3,2.5-6c1.7-1.7,3.7-2.5,6-2.5h27.4c2.3,0,4.2,0.8,5.9,2.5c1.6,1.7,2.5,3.7,2.5,6V360.9z M1536.3,113
		c0.8-0.8,1.9-1.2,3.1-1.2h13.5V60h-13.3c-1.2,0-2.3-0.4-3.1-1.3c-0.9-0.8-1.3-1.9-1.3-3.1c0-1.2,0.4-2.3,1.3-3.1
		c0.9-0.8,1.9-1.3,3.1-1.3h22v60.6h8.8V93.5c0-1.2,0.4-2.2,1.3-3.1c0.9-0.9,1.9-1.3,3.1-1.3s2.3,0.4,3.1,1.3
		c0.9,0.8,1.3,1.9,1.3,3.1v22.7c0,1.2-0.4,2.3-1.3,3.1c-0.8,0.9-1.9,1.3-3.1,1.3h-35.4c-1.2,0-2.3-0.4-3.1-1.3
		c-0.9-0.9-1.3-1.9-1.3-3.2C1535,114.9,1535.4,113.9,1536.3,113z M1536.3,221c0.8-0.8,1.9-1.2,3.1-1.2h13.5V168h-13.3
		c-1.2,0-2.3-0.4-3.1-1.3c-0.9-0.8-1.3-1.9-1.3-3.1c0-1.2,0.4-2.3,1.3-3.1c0.9-0.8,1.9-1.3,3.1-1.3h22v60.6h8.8v-18.3
		c0-1.2,0.4-2.2,1.3-3.1c0.9-0.9,1.9-1.3,3.1-1.3s2.3,0.4,3.1,1.3c0.9,0.8,1.3,1.9,1.3,3.1v22.7c0,1.2-0.4,2.3-1.3,3.1
		c-0.8,0.9-1.9,1.3-3.1,1.3h-35.4c-1.2,0-2.3-0.4-3.1-1.3c-0.9-0.9-1.3-1.9-1.3-3.2C1535,222.9,1535.4,221.9,1536.3,221z
		 M1536.2,534.8c0.9-0.8,1.9-1.2,3.1-1.2h13.5v-51.8h-13.3c-1.2,0-2.2-0.4-3.1-1.3c-0.8-0.9-1.3-1.9-1.3-3.1c0-1.2,0.4-2.3,1.3-3.1
		c0.9-0.8,1.9-1.3,3.1-1.3h22.1v60.6h8.8v-18.3c0-1.2,0.4-2.2,1.3-3.1c0.8-0.9,1.9-1.3,3.1-1.3s2.2,0.4,3.1,1.3
		c0.8,0.8,1.3,1.9,1.3,3.1V538c0,1.2-0.4,2.3-1.3,3.1c-0.9,0.8-1.9,1.3-3.1,1.3h-35.4c-1.2,0-2.2-0.5-3.1-1.3
		c-0.9-0.9-1.3-1.9-1.3-3.2C1534.9,536.7,1535.3,535.7,1536.2,534.8z M1536.2,854.8c0.9-0.8,1.9-1.2,3.1-1.2h13.5v-51.8h-13.3
		c-1.2,0-2.2-0.4-3.1-1.3c-0.8-0.9-1.3-1.9-1.3-3.1c0-1.2,0.4-2.3,1.3-3.1c0.9-0.8,1.9-1.3,3.1-1.3h22.1v60.6h8.8v-18.3
		c0-1.2,0.4-2.2,1.3-3.1c0.8-0.9,1.9-1.3,3.1-1.3s2.2,0.4,3.1,1.3c0.8,0.8,1.3,1.9,1.3,3.1V858c0,1.2-0.4,2.3-1.3,3.1
		c-0.9,0.8-1.9,1.3-3.1,1.3h-35.4c-1.2,0-2.2-0.5-3.1-1.3c-0.9-0.9-1.3-1.9-1.3-3.2C1534.9,856.7,1535.3,855.7,1536.2,854.8z
		 M1579.2,1061.9c0,2.3-0.8,4.3-2.5,6c-1.7,1.7-3.6,2.5-6,2.5h-27.3c-2.4,0-4.4-0.8-6-2.5c-1.6-1.7-2.5-3.7-2.5-6v-52.5
		c0-2.3,0.8-4.3,2.5-6c1.7-1.7,3.7-2.5,6-2.5h27.4c2.3,0,4.2,0.8,5.9,2.5c1.7,1.7,2.5,3.7,2.5,6V1061.9z M1579.2,957.9
		c0,2.3-0.8,4.3-2.5,6c-1.7,1.6-3.6,2.5-6,2.5h-27.3c-2.4,0-4.4-0.8-6-2.5c-1.6-1.7-2.5-3.7-2.5-6v-52.5c0-2.3,0.8-4.3,2.5-6
		c1.7-1.7,3.7-2.5,6-2.5h27.4c2.3,0,4.2,0.8,5.9,2.5c1.7,1.7,2.5,3.7,2.5,6V957.9z M1579.2,749.9c0,2.3-0.8,4.3-2.5,6
		c-1.7,1.6-3.6,2.5-6,2.5h-27.3c-2.4,0-4.4-0.8-6-2.5c-1.6-1.7-2.5-3.7-2.5-6v-52.5c0-2.3,0.8-4.3,2.5-6c1.7-1.7,3.7-2.5,6-2.5h27.4
		c2.3,0,4.2,0.8,5.9,2.5c1.7,1.7,2.5,3.7,2.5,6V749.9z M1579.2,644.9c0,2.3-0.8,4.3-2.5,6c-1.7,1.6-3.6,2.5-6,2.5h-27.3
		c-2.4,0-4.4-0.8-6-2.5c-1.6-1.7-2.5-3.7-2.5-6v-52.5c0-2.3,0.8-4.3,2.5-6c1.7-1.7,3.7-2.5,6-2.5h27.4c2.3,0,4.2,0.8,5.9,2.5
		c1.7,1.7,2.5,3.7,2.5,6V644.9z M1579.2,429.9c0,2.3-0.8,4.3-2.5,6c-1.7,1.6-3.6,2.5-6,2.5h-27.3c-2.4,0-4.4-0.8-6-2.5
		c-1.6-1.7-2.5-3.7-2.5-6v-52.5c0-2.3,0.8-4.3,2.5-6c1.7-1.7,3.7-2.5,6-2.5h27.4c2.3,0,4.2,0.8,5.9,2.5c1.7,1.7,2.5,3.7,2.5,6V429.9
		z M1579.2,325.9c0,2.3-0.8,4.3-2.5,6c-1.7,1.6-3.6,2.5-6,2.5h-27.3c-2.4,0-4.4-0.8-6-2.5c-1.6-1.7-2.5-3.7-2.5-6v-52.5
		c0-2.3,0.8-4.3,2.5-6c1.7-1.7,3.7-2.5,6-2.5h27.4c2.3,0,4.2,0.8,5.9,2.5c1.7,1.7,2.5,3.7,2.5,6V325.9z M1729.3,217.5v22.7
		c0,1.2-0.4,2.3-1.3,3.1c-0.9,0.9-1.9,1.3-3.1,1.3h-35.4c-1.2,0-2.2-0.4-3.1-1.3c-0.8-0.9-1.3-1.9-1.3-3.2c0-1.2,0.4-2.2,1.3-3
		c0.9-0.8,1.9-1.2,3.1-1.2h13.5V184h-13.3c-1.2,0-2.3-0.4-3.1-1.3c-0.9-0.8-1.3-1.9-1.3-3.1s0.4-2.3,1.3-3.1
		c0.8-0.9,1.9-1.3,3.1-1.3h22.1v60.6h8.8v-18.3c0-1.2,0.4-2.2,1.3-3.1c0.8-0.9,1.9-1.3,3.1-1.3c1.2,0,2.3,0.4,3.1,1.3
		C1728.9,215.2,1729.3,216.3,1729.3,217.5z M1689.7,502c-1.2,0-2.3-0.4-3.1-1.3c-0.9-0.8-1.3-1.9-1.3-3.1s0.4-2.3,1.3-3.1
		c0.8-0.9,1.9-1.3,3.1-1.3h22.1v60.6h8.8v-18.3c0-1.2,0.4-2.2,1.3-3.1c0.8-0.9,1.9-1.3,3.1-1.3c1.2,0,2.3,0.4,3.1,1.3
		c0.9,0.8,1.3,1.9,1.3,3.1v22.7c0,1.2-0.4,2.3-1.3,3.1c-0.9,0.9-1.9,1.3-3.1,1.3h-35.4c-1.2,0-2.2-0.4-3.1-1.3
		c-0.8-0.9-1.3-1.9-1.3-3.2c0-1.2,0.4-2.2,1.3-3c0.9-0.8,1.9-1.2,3.1-1.2h13.5V502H1689.7z M1728,455.3c-0.9,0.9-1.9,1.3-3.1,1.3
		h-35.4c-1.2,0-2.2-0.4-3.1-1.3c-0.8-0.9-1.3-1.9-1.3-3.2c0-1.2,0.4-2.2,1.3-3c0.9-0.8,1.9-1.2,3.1-1.2h13.5V396h-13.3
		c-1.2,0-2.3-0.4-3.1-1.3c-0.9-0.8-1.3-1.9-1.3-3.1s0.4-2.3,1.3-3.1c0.8-0.9,1.9-1.3,3.1-1.3h22.1v60.6h8.8v-18.3
		c0-1.2,0.4-2.2,1.3-3.1c0.8-0.9,1.9-1.3,3.1-1.3c1.2,0,2.3,0.4,3.1,1.3c0.9,0.8,1.3,1.9,1.3,3.1v22.7
		C1729.3,453.4,1728.9,454.4,1728,455.3z M1684.2,342.1v-52.5c0-2.3,0.8-4.3,2.5-6c1.7-1.7,3.7-2.5,5.9-2.5h27.4
		c2.3,0,4.2,0.8,5.9,2.5c1.7,1.7,2.5,3.7,2.5,6v52.5c0,2.3-0.8,4.3-2.5,6c-1.7,1.7-3.6,2.5-6,2.5h-27.3c-2.4,0-4.4-0.8-6-2.5
		C1685,346.4,1684.2,344.4,1684.2,342.1z M1683.3,77.8c0-2.3,0.8-4.3,2.5-6c1.7-1.7,3.7-2.5,5.9-2.5h27.4c2.3,0,4.2,0.8,5.9,2.5
		c1.6,1.7,2.5,3.7,2.5,6v52.5c0,2.3-0.8,4.3-2.5,6c-1.7,1.7-3.7,2.5-6,2.5h-27.3c-2.4,0-4.4-0.8-6-2.5c-1.6-1.7-2.4-3.7-2.4-6V77.8z
		 M1684.2,607.6c0-2.3,0.8-4.3,2.5-6c1.7-1.7,3.7-2.5,5.9-2.5h27.4c2.3,0,4.2,0.8,5.9,2.5c1.7,1.7,2.5,3.7,2.5,6v52.5
		c0,2.3-0.8,4.3-2.5,6c-1.7,1.7-3.6,2.5-6,2.5h-27.3c-2.4,0-4.4-0.8-6-2.5c-1.6-1.7-2.5-3.6-2.5-6V607.6z M1689.7,714
		c-1.2,0-2.3-0.4-3.1-1.3c-0.9-0.8-1.3-1.9-1.3-3.1s0.4-2.3,1.3-3.1c0.8-0.9,1.9-1.3,3.1-1.3h22.1v60.6h8.8v-18.3
		c0-1.2,0.4-2.2,1.3-3.1c0.8-0.9,1.9-1.3,3.1-1.3c1.2,0,2.3,0.4,3.1,1.3c0.9,0.8,1.3,1.9,1.3,3.1v22.7c0,1.2-0.4,2.3-1.3,3.1
		c-0.9,0.9-1.9,1.3-3.1,1.3h-35.4c-1.2,0-2.2-0.4-3.1-1.3c-0.8-0.9-1.3-1.9-1.3-3.2c0-1.2,0.4-2.2,1.3-3c0.9-0.8,1.9-1.2,3.1-1.2
		h13.5V714H1689.7z M1729.4,978.1c0,2.3-0.8,4.3-2.5,6c-1.7,1.7-3.6,2.5-6,2.5h-27.3c-2.4,0-4.4-0.8-6-2.5c-1.6-1.7-2.5-3.6-2.5-6
		v-52.5c0-2.3,0.8-4.3,2.5-6c1.7-1.7,3.7-2.5,5.9-2.5h27.4c2.3,0,4.2,0.8,5.9,2.5c1.7,1.7,2.5,3.7,2.5,6V978.1z M1729.4,872.1
		c0,2.3-0.8,4.3-2.5,6c-1.7,1.7-3.6,2.5-6,2.5h-27.3c-2.4,0-4.4-0.8-6-2.5c-1.6-1.7-2.5-3.6-2.5-6v-52.5c0-2.3,0.8-4.3,2.5-6
		c1.7-1.7,3.7-2.5,5.9-2.5h27.4c2.3,0,4.2,0.8,5.9,2.5c1.7,1.7,2.5,3.7,2.5,6V872.1z M1879.6,448.5v22.7c0,1.2-0.4,2.3-1.3,3.1
		c-0.9,0.9-1.9,1.3-3.1,1.3h-35.4c-1.2,0-2.2-0.5-3.1-1.3c-0.8-0.9-1.3-2-1.3-3.2c0-1.2,0.4-2.2,1.3-3c0.9-0.8,1.9-1.2,3.1-1.2h13.5
		V415H1840c-1.2,0-2.2-0.4-3.1-1.3c-0.8-0.9-1.3-1.9-1.3-3.1c0-1.2,0.4-2.3,1.3-3.1c0.9-0.8,1.9-1.3,3.1-1.3h22.1v60.6h8.8v-18.3
		c0-1.2,0.4-2.2,1.3-3.1c0.8-0.9,1.9-1.3,3.1-1.3s2.2,0.4,3.1,1.3C1879.2,446.2,1879.6,447.3,1879.6,448.5z M1840,627.3
		c-1.2,0-2.2-0.4-3.1-1.3c-0.8-0.9-1.3-1.9-1.3-3.1c0-1.2,0.4-2.3,1.3-3.1c0.9-0.9,1.9-1.3,3.1-1.3h22.1v60.6h8.8v-18.3
		c0-1.2,0.4-2.2,1.3-3.1c0.8-0.9,1.9-1.3,3.1-1.3s2.2,0.4,3.1,1.3c0.8,0.9,1.3,1.9,1.3,3.1v22.7c0,1.2-0.4,2.2-1.3,3.1
		c-0.9,0.8-1.9,1.3-3.1,1.3h-35.4c-1.2,0-2.2-0.4-3.1-1.3c-0.8-0.9-1.3-1.9-1.3-3.2c0-1.2,0.4-2.2,1.3-3c0.9-0.8,1.9-1.2,3.1-1.2
		h13.5v-51.8H1840z M1840,733.4c-1.2,0-2.2-0.4-3.1-1.3c-0.8-0.8-1.3-1.9-1.3-3.1c0-1.2,0.4-2.2,1.3-3.1c0.9-0.9,1.9-1.3,3.1-1.3
		h22.1v60.6h8.8v-18.3c0-1.2,0.4-2.2,1.3-3.1c0.8-0.9,1.9-1.3,3.1-1.3s2.2,0.4,3.1,1.3c0.8,0.9,1.3,1.9,1.3,3.1v22.7
		c0,1.2-0.4,2.3-1.3,3.1c-0.9,0.9-1.9,1.3-3.1,1.3h-35.4c-1.2,0-2.2-0.4-3.1-1.3c-0.8-0.9-1.3-1.9-1.3-3.2c0-1.2,0.4-2.2,1.3-3
		c0.9-0.8,1.9-1.3,3.1-1.3h13.5v-51.8H1840z M1833.4,96c0-2.3,0.8-4.3,2.5-6c1.7-1.7,3.7-2.5,6-2.5h27.4c2.3,0,4.2,0.8,5.9,2.5
		c1.7,1.7,2.5,3.6,2.5,6v52.5c0,2.3-0.8,4.3-2.5,6c-1.7,1.7-3.7,2.5-6,2.5h-27.3c-2.4,0-4.4-0.8-6-2.5c-1.6-1.7-2.5-3.6-2.5-6V96z
		 M1833.4,202.2c0-2.3,0.8-4.3,2.5-6c1.7-1.7,3.7-2.5,6-2.5h27.4c2.3,0,4.2,0.8,5.9,2.5c1.7,1.7,2.5,3.7,2.5,6v52.5
		c0,2.3-0.8,4.3-2.5,6c-1.7,1.7-3.7,2.5-6,2.5h-27.3c-2.4,0-4.4-0.8-6-2.5s-2.5-3.7-2.5-6V202.2z M1833.4,308.5c0-2.3,0.8-4.3,2.5-6
		c1.7-1.7,3.7-2.5,6-2.5h27.4c2.3,0,4.2,0.8,5.9,2.5c1.7,1.7,2.5,3.7,2.5,6V361c0,2.3-0.8,4.3-2.5,6c-1.7,1.7-3.7,2.5-6,2.5h-27.3
		c-2.4,0-4.4-0.8-6-2.5c-1.6-1.6-2.5-3.6-2.5-6V308.5z M1879.6,1002c0,1.2-0.4,2.2-1.3,3.1c-0.9,0.8-1.9,1.3-3.1,1.3h-35.4
		c-1.2,0-2.2-0.5-3.1-1.3c-0.8-0.9-1.3-1.9-1.3-3.2c0-1.2,0.4-2.2,1.3-3c0.9-0.8,1.9-1.2,3.1-1.2h13.5v-51.8H1840
		c-1.2,0-2.2-0.4-3.1-1.3c-0.8-0.9-1.3-1.9-1.3-3.1c0-1.2,0.4-2.3,1.3-3.1c0.9-0.8,1.9-1.3,3.1-1.3h22.1v60.6h8.8v-18.3
		c0-1.2,0.4-2.2,1.3-3.1c0.8-0.9,1.9-1.3,3.1-1.3s2.2,0.4,3.1,1.3c0.8,0.8,1.3,1.9,1.3,3.1V1002z M1879.6,891.8c0,2.3-0.8,4.3-2.5,6
		c-1.7,1.7-3.7,2.5-6,2.5h-27.3c-2.4,0-4.4-0.8-6-2.5c-1.6-1.7-2.5-3.7-2.5-6v-52.5c0-2.3,0.8-4.3,2.5-6c1.7-1.7,3.7-2.5,6-2.5h27.4
		c2.3,0,4.2,0.8,5.9,2.5c1.7,1.7,2.5,3.7,2.5,6V891.8z M1879.6,573.3c0,2.3-0.8,4.3-2.5,6c-1.7,1.7-3.7,2.5-6,2.5h-27.3
		c-2.4,0-4.4-0.8-6-2.5c-1.6-1.7-2.5-3.7-2.5-6v-52.5c0-2.3,0.8-4.3,2.5-6c1.7-1.7,3.7-2.5,6-2.5h27.4c2.3,0,4.2,0.8,5.9,2.5
		c1.7,1.7,2.5,3.7,2.5,6V573.3z"/>
	<rect x="1693" y="608" class="st0" width="26.8" height="51.8"/>
	<rect x="1694" y="926" class="st0" width="26.8" height="51.8"/>
	<rect x="1842.2" y="96.4" class="st0" width="26.8" height="51.8"/>
	<rect x="1395.4" y="412.8" class="st0" width="26.8" height="51.8"/>
	<rect x="1842.2" y="308.9" class="st0" width="26.8" height="51.8"/>
	<rect x="1395.4" y="627.8" class="st0" width="26.8" height="51.8"/>
	<rect x="1395.4" y="732.8" class="st0" width="26.8" height="51.8"/>
	<rect x="1395.4" y="940.8" class="st0" width="26.8" height="51.8"/>
</g>
<g>
</g>
<g>
</g>
<g>
</g>
<g>
</g>
<g>
</g>
<g>
</g>
<g>
</g>
<g>
</g>
<g>
</g>
<g>
</g>
<g>
</g>
<g>
</g>
<g>
</g>
<g>
</g>
<g>
</g>
</svg>
