<?xml version="1.0" encoding="utf-8"?>
<!-- Generator: Adobe Illustrator 25.2.1, SVG Export Plug-In . SVG Version: 6.00 Build 0)  -->
<svg version="1.1" id="Capa_1" xmlns="http://www.w3.org/2000/svg" xmlns:xlink="http://www.w3.org/1999/xlink" x="0px" y="0px"
	 viewBox="0 0 1080 1080" style="enable-background:new 0 0 1080 1080;" xml:space="preserve">
<style type="text/css">
	.st0{fill:#F5F5F5;}
	.st1{fill:#00CC00;}
</style>
<g>
	<rect x="20.4" y="20.4" class="st0" width="1040" height="1040"/>
	<path d="M1040.4,40.4v1000H40.4V40.4H1040.4 M1080.4,0.4H0.4v1080h1080V0.4L1080.4,0.4z"/>
</g>
<g>
	<g>
		<path class="st1" d="M245.2,806.1c-26.2,0-47.4-21.3-47.4-47.4V384.5c0-26.2,21.3-47.4,47.4-47.4h589.1
			c26.2,0,47.4,21.3,47.4,47.4v374.1c0,26.2-21.3,47.4-47.4,47.4H245.2z"/>
		<path d="M834.4,357.1c15.1,0,27.4,12.3,27.4,27.4v374.1c0,15.1-12.3,27.4-27.4,27.4H245.2c-15.1,0-27.4-12.3-27.4-27.4V384.5
			c0-15.1,12.3-27.4,27.4-27.4H834.4 M834.4,317.1H245.2c-37.2,0-67.4,30.2-67.4,67.4v374.1c0,37.2,30.2,67.4,67.4,67.4h589.1
			c37.2,0,67.4-30.2,67.4-67.4V384.5C901.8,347.3,871.6,317.1,834.4,317.1L834.4,317.1z"/>
	</g>
	<g>
		<path d="M851.8,354.6h-200c-13.2,0-24-10.7-24-24v-53c0-13.2,10.7-24,24-24h200c13.2,0,24,10.7,24,24v53
			C875.8,343.8,865,354.6,851.8,354.6z"/>
	</g>
	<g>
		<path class="st1" d="M245.6,806.4c-26.2,0-47.4-21.3-47.4-47.4V497c0-26.2,21.3-47.4,47.4-47.4h589.1c26.2,0,47.4,21.3,47.4,47.4
			v262c0,26.2-21.3,47.4-47.4,47.4H245.6z"/>
		<path d="M834.8,469.6c15.1,0,27.4,12.3,27.4,27.4v262c0,15.1-12.3,27.4-27.4,27.4H245.6c-15.1,0-27.4-12.3-27.4-27.4V497
			c0-15.1,12.3-27.4,27.4-27.4H834.8 M834.8,429.6H245.6c-37.2,0-67.4,30.2-67.4,67.4v262c0,37.2,30.2,67.4,67.4,67.4h589.1
			c37.2,0,67.4-30.2,67.4-67.4V497C902.2,459.8,872,429.6,834.8,429.6L834.8,429.6z"/>
	</g>
</g>
<g>
</g>
<g>
</g>
<g>
</g>
<g>
</g>
<g>
</g>
<g>
</g>
<g>
</g>
<g>
</g>
<g>
</g>
<g>
</g>
<g>
</g>
<g>
</g>
<g>
</g>
<g>
</g>
<g>
</g>
</svg>
