<?xml version="1.0" encoding="utf-8"?>
<!-- Generator: Adobe Illustrator 25.2.1, SVG Export Plug-In . SVG Version: 6.00 Build 0)  -->
<svg version="1.1" id="Capa_1" xmlns="http://www.w3.org/2000/svg" xmlns:xlink="http://www.w3.org/1999/xlink" x="0px" y="0px"
	 viewBox="0 0 1080 1080" style="enable-background:new 0 0 1080 1080;" xml:space="preserve">
<style type="text/css">
	.st0{stroke:#FFFFFF;stroke-width:40;stroke-miterlimit:10;}
</style>
<polygon class="st0" points="326.5,325 446.3,325 446.3,975.2 639.3,975.2 639.3,1080 326.5,1080 "/>
<g>
	<rect x="528.5" y="528" width="495" height="82.3"/>
	<rect x="528.5" y="641.4" width="495" height="82.3"/>
	<rect x="528.5" y="754.7" width="495" height="82.3"/>
</g>
<path class="st0" d="M272.4,0C83.5,0,83.5,0,83.5,0v783.2h121.3V464c0,0,242.7,37.1,244.5-178.7v-97.9C449.4,187.4,461.3,0,272.4,0z
	 M327.6,187.4v111.3c-8.3,61.1-61.1,52.6-61.1,52.6h-61.2V112.5h61.2C337.9,104.2,327.6,187.4,327.6,187.4z"/>
<g>
</g>
<g>
</g>
<g>
</g>
<g>
</g>
<g>
</g>
<g>
</g>
<g>
</g>
<g>
</g>
<g>
</g>
<g>
</g>
<g>
</g>
<g>
</g>
<g>
</g>
<g>
</g>
<g>
</g>
</svg>
