<?xml version="1.0" standalone="no"?>
<!DOCTYPE svg PUBLIC "-//W3C//DTD SVG 20010904//EN"
  "http://www.w3.org/TR/2001/REC-SVG-20010904/DTD/svg10.dtd">
<svg version="1.0" xmlns="http://www.w3.org/2000/svg"
  width="512.000000pt" height="512.000000pt" viewBox="0 0 512.000000 512.000000"
  preserveAspectRatio="xMidYMid meet">

<g transform="translate(0.000000,512.000000) scale(0.100000,-0.100000)"
fill="#00cc00" stroke="none">
<path d="M2390 4080 c-543 -37 -1080 -242 -1543 -589 -228 -170 -446 -374 -626 -585 -272 -318 -277 -347 -96 -573 812 -1013 1891 -1464 2977 -1243 651 133 1292 534 1797 1124 272 318 277 347 96 573 -715 893 -1653 1358 -2605 1293z m355 -461 c281 -46 548 -220 708 -461 258 -387 243 -878 -39 -1248 -268 -353 -727 -507 -1147 -385 -370 108 -652 395 -747 761 -97 378 13 769 293 1041 254 246 581 349 932 292z"/>
<path d="M2433 3125 c-34 -7 -92 -28 -130 -47 -93 -45 -216 -168 -261 -261 -80 -165 -81 -346 -1 -513 46 -95 168 -217 263 -263 230 -110 482 -67 662 113 180 180 223 432 113 662 -46 95 -168 217 -263 263 -122 58 -254 74 -383 46z"/>
</g>
</svg>