<?xml version="1.0" encoding="utf-8"?>
<!-- Generator: Adobe Illustrator 25.2.1, SVG Export Plug-In . SVG Version: 6.00 Build 0)  -->
<svg version="1.1" id="Capa_1" xmlns="http://www.w3.org/2000/svg" xmlns:xlink="http://www.w3.org/1999/xlink" x="0px" y="0px"
	 viewBox="0 0 1080 1080" style="enable-background:new 0 0 1080 1080;" xml:space="preserve">
<style type="text/css">
	.st0{fill:#F5F5F5;}
	.st1{fill:#00CC00;}
</style>
<g>
	<rect x="20" y="20" class="st0" width="1040" height="1040"/>
	<path d="M1040,40v1000H40V40H1040 M1080,0H0v1080h1080V0L1080,0z"/>
</g>
<g>
	<path class="st1" d="M206.5,1060c-5.7-7-11.3-14.2-16.8-21.6c37.9-81.7,79.2-149.5,122.8-201.8c54.7-65.5,113.2-106.5,173.8-121.7
		c18.2-4.6,36.9-6.9,55.7-6.9l1,0c16,0.1,32.1,1.8,47.7,5.2c62,13.4,121.6,53.3,177.4,118.6c44.5,52.1,86.5,120.3,125,202.9
		c-6.3,8.6-12.8,17.1-19.5,25.3H206.5z"/>
	<path d="M542,728L542,728l0.9,0c14.6,0.1,29.3,1.7,43.6,4.7c57.6,12.5,113.6,50.2,166.4,112c41.4,48.5,80.7,111.5,117,187.6
		c-2,2.6-3.9,5.1-5.9,7.6H216.1c-1.1-1.4-2.1-2.7-3.2-4.1c35.7-75.3,74.3-137.9,114.9-186.5c51.9-62.2,106.9-101,163.3-115.1
		C507.8,730.1,524.9,728,542,728 M542,688c-20.9,0-41.1,2.6-60.5,7.5C340,731,236.3,887,166.6,1040.7c9.8,13.7,19.9,26.8,30.4,39.3
		h686c11.4-13.7,22.5-28.1,33.1-43.1C845.3,881.7,739.7,725,594.9,693.6c-16.8-3.6-34-5.6-51.9-5.7C542.7,688,542.3,688,542,688
		L542,688z"/>
</g>
<g>
	<path class="st1" d="M540,693c-65.7,0-127.5-25.6-173.9-72.1C319.6,574.5,294,512.7,294,447s25.6-127.5,72.1-173.9
		S474.3,201,540,201s127.5,25.6,173.9,72.1C760.4,319.5,786,381.3,786,447s-25.6,127.5-72.1,173.9C667.5,667.4,605.7,693,540,693z"
		/>
	<g>
		<path d="M540,221c30.5,0,60.1,6,88,17.7c26.9,11.4,51.1,27.7,71.8,48.5c20.8,20.8,37.1,44.9,48.5,71.8
			c11.8,27.8,17.7,57.4,17.7,88s-6,60.1-17.7,88c-11.4,26.9-27.7,51.1-48.5,71.8c-20.8,20.8-44.9,37.1-71.8,48.5
			C600.1,667,570.5,673,540,673s-60.1-6-88-17.7c-26.9-11.4-51.1-27.7-71.8-48.5c-20.8-20.8-37.1-44.9-48.5-71.8
			C320,507.1,314,477.5,314,447s6-60.1,17.7-88c11.4-26.9,27.7-51.1,48.5-71.8c20.8-20.8,44.9-37.1,71.8-48.5
			C479.9,227,509.5,221,540,221 M540,181c-146.9,0-266,119.1-266,266s119.1,266,266,266s266-119.1,266-266S686.9,181,540,181
			L540,181z"/>
	</g>
</g>
<g>
</g>
<g>
</g>
<g>
</g>
<g>
</g>
<g>
</g>
<g>
</g>
<g>
</g>
<g>
</g>
<g>
</g>
<g>
</g>
<g>
</g>
<g>
</g>
<g>
</g>
<g>
</g>
<g>
</g>
</svg>
